<svg class="cs-header-user-nav__icon cs-header-user-nav__icon--my-cart" xmlns="http://www.w3.org/2000/svg" viewBox="0 0 25 25"><path fill="#ffffff" d="M0 0v1.8h3.71l2.54 15.24v2.77a2.7 2.7 0 00-1.78 2.51A2.69 2.69 0 007.15 25a2.69 2.69 0 002.67-2.67 2.63 2.63 0 00-.16-.9h8.37a2.61 2.61 0 00-.17.9A2.7 2.7 0 0020.54 25a2.69 2.69 0 002.68-2.67 2.63 2.63 0 00-.17-.9H25v-1.79H8.04v-1.78h12.5a.9.9 0 00.84-.61l3.57-10.72a.9.9 0 00-.84-1.17h-8.04v1.78h6.8l-2.98 8.93H7.9L6.41 7.14H19.5V5.36H6.12L5.34.74A.9.9 0 004.47 0zm7.14 21.43a.88.88 0 01.9.9.88.88 0 01-.9.9.88.88 0 01-.9-.9.89.89 0 01.9-.9zm13.4 0a.88.88 0 01.89.9.88.88 0 01-.9.9.88.88 0 01-.9-.9.89.89 0 01.9-.9z"></path></svg>