<svg xmlns="http://www.w3.org/2000/svg" viewBox="0 0 37.501 30.999" fill="#ffffff" data-src="https://web.archive.org/web/20250116105257/https://d10mhq06fikmnr.cloudfront.net/static/version1730885397/frontend/Creativestyle/theme-megaport/de_DE/images/icons/addtocart/icon-addtocart.svg" class="cs-addtocart__configure-icon " role="img" aria-label=""><path d="M17.854 28.324a2.608 2.608 0 01.177-.9H9.656a2.671 2.671 0 01.167.9 2.688 2.688 0 01-2.675 2.675 2.689 2.689 0 01-2.679-2.675 2.692 2.692 0 011.78-2.515v-2.771L3.713 7.786H.001V5.999H4.47a.9.9 0 01.878.745l.769 4.615h17.994a.889.889 0 01.845 1.171l-3.573 10.717a.891.891 0 01-.842.606h-12.5v1.787h16.96v1.787h-1.957a2.6 2.6 0 01.17.9 2.688 2.688 0 01-2.675 2.675 2.7 2.7 0 01-2.685-2.678zm1.787 0a.88.88 0 00.9.888.874.874 0 00.889-.888.881.881 0 00-.889-.9.886.886 0 00-.9.9zm-13.392 0a.88.88 0 00.9.888.873.873 0 00.888-.888.88.88 0 00-.888-.9.886.886 0 00-.9.9zm1.656-6.255h11.988l2.971-8.927H6.415zm24.096-13.07v-3.5h-3.5v-2h3.5v-3.5h2v3.5h3.5v2h-3.5v3.5z"></path></svg>