<svg xmlns="http://www.w3.org/2000/svg" fill="#37a4a9" viewBox="0 0 14 14" data-src="https://web.archive.org/web/20250116105257/https://d10mhq06fikmnr.cloudfront.net/static/version1730885397/frontend/Creativestyle/theme-megaport/de_DE/images/icons/reviews/star.svg" class="cs-star-rating__star cs-star-rating__star--active " role="img" aria-label="Stern"><path class="star-right" d="M13.6 5l-4.3-.7L7.4.2C7.3 0 7-.1 6.8.1c-.1 0-.1.1-.2.2l-1.9 4L.4 5c-.3 0-.4.3-.4.5 0 .1.1.2.1.2L3.3 9l-.7 4.5c0 .2.1.5.4.5h.3L7 11.8l3.8 2.1c.2.1.5 0 .6-.2 0-.1.1-.2 0-.3L10.7 9l3.1-3.2c.2-.2.2-.5 0-.6 0-.1-.1-.2-.2-.2z"></path><path class="star-border" d="M7 2.9L8 5l.3.7.8.1 2.3.3-1.7 1.8-.6.5.1.7.4 2.4-1.9-1.1-.7-.3-.7.4-1.9 1.1.4-2.4.1-.7-.6-.6-1.7-1.7 2.3-.3.8-.1L6 5l1-2.1M7 0c-.1 0-.2 0-.2.1-.1 0-.1.1-.2.2l-1.9 4L.4 5c-.3 0-.4.3-.4.5 0 .1.1.2.1.2L3.3 9l-.7 4.5c0 .2.1.5.4.5h.1c.1 0 .1 0 .2-.1L7 11.8l3.8 2.1c.1 0 .1.1.2.1.2 0 .3-.1.4-.2 0-.1.1-.2 0-.3L10.7 9l3.1-3.2c.2-.2.2-.5 0-.6 0-.1-.1-.2-.2-.2l-4.3-.7L7.4.2C7.3.1 7.2 0 7 0z"></path><path class="star-left" d="M7 0c-.1 0-.2 0-.2.1-.1 0-.1.1-.2.2l-1.9 4L.4 5c-.3 0-.4.3-.4.5 0 .1.1.2.1.2L3.3 9l-.7 4.5c0 .2.1.5.4.5h.3L7 11.8V0z"></path></svg>