<svg xmlns="http://www.w3.org/2000/svg" viewBox="0 0 25.6 15.54"><path fill="#f04e37" d="M4.24 1.26L.55 6.13a2.68 2.68 0 000 3.26l3.69 4.89a3.23 3.23 0 002.57 1.26h17.1a1.66 1.66 0 001.69-1.62V1.62A1.66 1.66 0 0023.91 0H6.81a3.23 3.23 0 00-2.57 1.26z"/><path fill="#fff" d="M9.9 11.51l8.55-8.55 1.07 1.07-8.55 8.55zm7.47-3.44a2.37 2.37 0 102.37 2.36 2.37 2.37 0 00-2.37-2.36zm0 3.22a.86.86 0 11.86-.86.86.86 0 01-.86.86zm-5.32-3.81A2.37 2.37 0 109.68 5.1a2.37 2.37 0 002.37 2.37zm0-3.23a.86.86 0 11-.86.86.86.86 0 01.86-.86z"/></svg>