<svg width="50pt" height="50pt" viewBox="0 0 50 50" version="1.1" xmlns="http://www.w3.org/2000/svg" fill="#ffffff">
<g id="#3a3a3cff">
<path opacity="1.00" fill="#ffffff" d=" M 11.48 9.60 C 15.96 7.60 20.50 5.75 25.02 3.84 C 29.52 5.75 34.03 7.61 38.51 9.58 C 38.46 14.98 38.60 20.38 38.39 25.78 C 37.83 25.32 36.69 24.42 36.13 23.96 C 35.79 19.94 36.05 15.89 36.04 11.85 C 33.33 10.96 30.48 8.24 27.63 9.27 C 27.31 12.99 27.53 16.74 27.57 20.48 C 21.76 19.46 16.87 23.91 11.50 25.45 C 11.49 20.17 11.51 14.88 11.48 9.60 M 13.93 11.73 C 13.94 14.61 14.05 17.49 14.11 20.37 C 16.91 19.66 19.79 18.87 22.20 17.21 C 22.95 14.30 22.44 11.24 22.15 8.29 C 19.34 9.27 16.60 10.42 13.93 11.73 Z"></path>
<path opacity="1.00" fill="#ffffff" d=" M 4.04 9.05 C 6.11 9.02 8.18 9.00 10.25 8.98 C 10.26 14.88 10.21 20.77 10.29 26.66 C 15.11 28.97 20.07 30.93 24.99 32.98 C 29.81 30.81 34.95 29.28 39.50 26.58 C 40.12 20.74 39.57 14.84 39.75 8.98 C 41.82 9.00 43.89 9.02 45.96 9.05 C 46.05 17.62 45.99 26.19 45.99 34.75 C 34.29 34.83 22.57 34.59 10.88 34.85 C 10.38 35.07 9.39 35.53 8.89 35.75 C 21.35 36.33 33.85 35.80 46.32 36.03 C 46.56 39.28 43.07 38.39 41.00 38.54 C 28.70 38.46 16.39 38.53 4.09 38.50 C 4.06 37.90 3.99 36.69 3.96 36.09 C 4.99 35.99 7.06 35.79 8.09 35.69 C 6.77 35.14 5.41 34.73 4.00 34.47 C 4.02 25.99 3.95 17.52 4.04 9.05 Z"></path>
<path opacity="1.00" fill="#ffffff" d=" M 15.27 12.27 C 17.33 11.42 19.40 10.57 21.46 9.73 C 21.49 11.94 21.53 14.14 21.58 16.34 C 19.48 17.29 17.38 18.23 15.26 19.11 C 15.25 16.83 15.26 14.55 15.27 12.27 Z"></path>
<path opacity="1.00" fill="#ffffff" d=" M 28.50 9.88 C 30.57 10.71 32.66 11.53 34.72 12.40 C 34.76 16.23 34.75 20.07 34.75 23.90 C 32.67 23.02 30.58 22.14 28.50 21.26 C 28.50 17.47 28.49 13.67 28.50 9.88 M 33.23 17.26 C 33.80 17.81 33.80 17.81 33.23 17.26 Z"></path>
<path opacity="1.00" fill="#ffffff" d=" M 12.35 26.42 C 16.54 24.58 20.75 22.81 24.99 21.09 C 29.21 22.81 33.42 24.56 37.58 26.43 C 33.41 28.25 29.22 30.00 25.00 31.72 C 20.77 30.00 16.55 28.22 12.35 26.42 Z"></path>
<path opacity="1.00" fill="#ffffff" d=" M 18.36 43.00 C 18.80 41.91 19.24 40.82 19.68 39.74 C 23.23 39.75 26.77 39.75 30.31 39.74 C 30.75 40.83 31.19 41.91 31.64 43.00 C 27.21 43.00 22.78 43.00 18.36 43.00 Z"></path>
<path opacity="1.00" fill="#ffffff" d=" M 15.15 44.26 C 21.72 44.25 28.29 44.24 34.86 44.26 C 34.86 44.69 34.86 45.54 34.86 45.97 C 28.28 46.02 21.70 46.03 15.12 45.96 C 15.13 45.53 15.15 44.69 15.15 44.26 Z"></path>
</g>
</svg>