<svg width="90px" height="90px" viewBox="0 0 200 200" version="1.1" xmlns="http://www.w3.org/2000/svg">
                        <g id="#000000ff">
                            <path fill="#ffffff" opacity="1.00" d=" M 4.20 4.92 C 3.87 2.76 5.89 1.18 7.92 1.49 C 33.62 1.47 59.32 1.50 85.02 1.47 C 87.41 1.53 89.85 1.23 92.19 1.76 C 93.87 2.46 93.90 4.43 93.89 5.96 C 93.86 40.64 93.88 75.31 93.88 109.98 C 98.18 110.12 102.52 109.67 106.80 110.22 C 109.54 112.15 108.92 116.18 109.84 119.09 C 121.58 119.09 133.32 119.09 145.06 119.09 C 146.00 116.17 145.34 112.08 148.15 110.20 C 155.03 109.83 162.00 109.82 168.89 110.21 C 171.77 112.38 171.03 116.70 172.07 119.86 C 177.61 122.41 182.23 127.08 183.97 133.01 C 187.73 146.32 191.26 159.69 194.98 173.00 C 199.08 184.07 190.79 197.38 178.98 198.27 C 170.81 199.27 162.33 194.35 159.25 186.70 C 157.17 181.53 155.32 176.26 153.35 171.04 C 150.01 173.35 146.14 175.19 141.97 174.91 C 136.82 174.87 132.17 172.00 128.95 168.12 C 125.60 172.32 120.44 175.16 114.98 174.92 C 110.92 174.94 107.22 173.01 104.10 170.58 C 101.76 176.45 99.82 182.50 97.14 188.22 C 92.66 196.97 81.08 201.05 72.15 196.87 C 64.62 193.59 59.81 185.05 61.06 176.90 C 61.72 172.88 63.10 169.02 64.08 165.06 C 51.93 165.06 39.77 165.06 27.61 165.07 C 27.25 167.90 28.81 171.99 25.85 173.78 C 21.92 174.30 17.95 173.91 14.00 174.04 C 12.09 173.99 9.30 174.34 8.64 171.95 C 8.37 169.76 8.50 167.55 8.52 165.35 C 6.98 164.90 4.76 164.90 4.32 162.97 C 4.03 160.64 4.17 158.29 4.16 155.96 C 4.20 105.61 4.12 55.26 4.20 4.92 M 10.15 7.45 C 10.12 57.96 10.16 108.46 10.13 158.96 C 28.66 159.01 47.19 159.18 65.73 159.07 C 68.04 150.68 70.28 142.25 72.63 133.87 C 74.06 128.38 77.92 123.84 82.69 120.89 C 83.29 117.95 83.68 114.97 84.48 112.07 C 84.75 110.41 86.70 110.23 87.93 109.61 C 87.87 75.56 87.93 41.51 87.89 7.45 C 61.98 7.46 36.06 7.46 10.15 7.45 M 89.53 115.99 C 88.93 118.91 88.60 121.90 87.59 124.71 C 83.87 127.13 79.82 129.80 78.60 134.38 C 74.72 148.21 70.99 162.08 67.22 175.94 C 65.42 181.80 68.54 188.44 73.96 191.14 C 80.29 194.53 89.13 191.56 91.89 184.87 C 94.59 178.45 96.75 171.81 99.44 165.38 C 100.17 163.21 102.84 162.15 104.89 163.14 C 107.10 164.65 108.49 167.24 111.13 168.14 C 115.64 170.10 121.57 168.42 123.98 164.02 C 125.10 162.11 126.31 159.41 129.04 159.84 C 131.34 159.93 132.17 162.29 133.26 163.91 C 135.56 168.14 141.14 170.02 145.60 168.34 C 148.13 167.56 149.67 165.25 151.78 163.81 C 153.70 162.82 156.45 163.56 157.17 165.74 C 159.89 172.19 162.02 178.88 164.80 185.30 C 167.72 191.66 176.18 194.38 182.37 191.26 C 187.94 188.63 191.16 181.84 189.32 175.89 C 185.44 161.99 181.84 147.99 177.76 134.15 C 176.18 129.01 171.34 126.32 166.87 124.07 C 165.91 121.51 165.61 118.77 165.06 116.11 C 160.59 116.11 156.11 116.11 151.64 116.11 C 151.10 118.68 150.83 121.33 149.89 123.79 C 149.14 125.25 147.35 125.19 145.96 125.23 C 133.65 125.22 121.33 125.21 109.02 125.24 C 107.45 125.20 105.33 125.36 104.63 123.57 C 103.82 121.11 103.49 118.52 102.98 115.98 C 98.50 115.97 94.01 115.96 89.53 115.99 M 14.45 165.07 C 14.46 165.81 14.47 167.29 14.48 168.04 C 16.86 168.04 19.25 168.04 21.63 168.04 C 21.64 167.30 21.65 165.81 21.66 165.07 C 19.26 165.07 16.85 165.07 14.45 165.07 Z"></path>
                            <path fill="#ffffff" opacity="1.00" d=" M 15.07 19.82 C 37.68 19.64 60.30 19.51 82.90 19.88 C 83.11 27.05 82.89 34.21 83.03 41.37 C 81.71 41.59 80.37 41.79 79.03 41.80 C 59.03 41.78 39.02 41.76 19.02 41.81 C 17.61 41.83 16.22 41.59 14.85 41.32 C 15.08 34.15 14.71 26.98 15.07 19.82 M 17.92 22.68 C 17.90 28.05 17.91 33.42 17.92 38.79 C 38.60 38.80 59.29 38.79 79.98 38.80 C 79.99 33.42 79.99 28.05 79.98 22.68 C 59.29 22.67 38.60 22.67 17.92 22.68 Z"></path>
                            <path fill="#ffffff" opacity="1.00" d=" M 31.65 29.25 C 43.25 29.28 54.86 29.18 66.47 29.30 C 66.44 30.03 66.40 31.50 66.38 32.23 C 54.80 32.23 43.22 32.24 31.64 32.23 C 31.64 31.48 31.65 29.99 31.65 29.25 Z"></path>
                            <path fill="#ffffff" opacity="1.00" d=" M 70.42 29.26 C 71.66 29.25 72.92 29.25 74.17 29.24 C 74.17 29.99 74.17 31.48 74.17 32.23 C 73.24 32.23 71.39 32.24 70.46 32.24 C 70.44 31.25 70.43 30.26 70.42 29.26 Z"></path>
                            <path fill="#ffffff" opacity="1.00" d=" M 14.96 47.71 C 34.98 47.10 55.04 47.64 75.07 47.44 C 77.70 47.40 80.34 47.39 82.95 47.75 C 83.06 54.92 82.90 62.09 83.05 69.25 C 81.74 69.50 80.42 69.72 79.09 69.72 C 59.05 69.67 39.00 69.68 18.96 69.71 C 17.59 69.70 16.23 69.50 14.89 69.29 C 14.98 62.10 14.86 54.90 14.96 47.71 M 17.92 50.44 C 17.90 55.86 17.90 61.28 17.92 66.70 C 38.61 66.71 59.29 66.70 79.98 66.70 C 79.99 61.28 79.99 55.86 79.97 50.44 C 59.29 50.44 38.61 50.44 17.92 50.44 Z"></path>
                            <path fill="#ffffff" opacity="1.00" d=" M 14.90 75.72 C 16.23 75.53 17.57 75.36 18.92 75.34 C 38.94 75.37 58.96 75.36 78.99 75.34 C 80.32 75.36 81.65 75.52 82.98 75.70 C 82.99 82.87 83.01 90.04 82.96 97.22 C 64.99 97.77 46.99 97.30 29.00 97.45 C 24.33 97.40 19.66 97.63 15.00 97.25 C 14.83 90.07 14.99 82.90 14.90 75.72 M 17.92 78.35 C 17.90 83.72 17.91 89.09 17.92 94.46 C 38.60 94.47 59.29 94.47 79.98 94.46 C 79.98 89.09 79.99 83.71 79.97 78.34 C 59.29 78.35 38.60 78.34 17.92 78.35 Z"></path>
                            <path fill="#ffffff" opacity="1.00" d=" M 46.23 110.16 C 53.66 108.23 61.72 114.22 62.04 121.88 C 62.82 129.48 55.69 136.55 48.11 135.78 C 41.20 135.42 35.42 128.77 36.15 121.87 C 36.46 116.31 40.78 111.31 46.23 110.16 M 45.45 113.66 C 38.65 116.00 36.86 125.97 42.49 130.49 C 47.58 135.37 57.01 132.61 58.70 125.76 C 61.17 118.30 52.72 110.40 45.45 113.66 Z"></path>
                            <path fill="#ffffff" opacity="1.00" d=" M 47.26 120.07 C 49.04 118.78 51.82 119.88 52.29 122.01 C 52.96 124.33 50.37 126.88 48.06 125.95 C 45.52 125.23 44.98 121.44 47.26 120.07 Z"></path>
                            <path fill="#ffffff" opacity="1.00" d=" M 92.58 137.66 C 92.11 134.12 93.77 129.58 98.02 129.82 C 102.11 129.82 103.62 134.22 103.22 137.66 C 105.42 137.83 108.07 137.49 109.64 139.39 C 111.70 141.49 111.42 145.25 109.09 147.02 C 107.48 148.45 105.18 148.09 103.21 148.30 C 103.02 150.44 103.46 153.04 101.64 154.62 C 99.53 156.76 95.62 156.58 93.79 154.16 C 92.41 152.53 92.78 150.26 92.58 148.30 C 90.45 148.09 87.91 148.46 86.31 146.72 C 84.25 144.81 84.24 141.25 86.27 139.31 C 87.86 137.51 90.43 137.84 92.58 137.66 M 96.32 133.28 C 94.92 135.32 96.35 138.19 95.16 140.27 C 92.74 141.30 88.12 139.19 87.69 142.98 C 88.56 146.28 92.79 144.75 95.25 145.03 C 96.14 147.59 94.63 151.22 97.12 152.92 C 101.43 153.48 99.63 147.96 100.43 145.41 C 102.51 144.87 104.71 145.16 106.83 144.83 C 108.39 144.04 108.41 141.75 106.95 140.84 C 104.68 140.58 102.38 140.57 100.12 140.21 C 100.14 138.16 100.32 136.09 99.95 134.06 C 99.29 132.61 97.52 132.14 96.32 133.28 Z"></path>
                            <path fill="#ffffff" opacity="1.00" d=" M 157.44 130.69 C 160.65 128.32 165.60 131.06 165.53 134.98 C 165.80 139.02 160.72 141.82 157.43 139.48 C 154.29 137.61 154.30 132.56 157.44 130.69 M 159.15 133.04 C 157.55 133.78 157.72 136.13 159.22 136.88 C 160.60 137.74 162.50 136.60 162.54 135.02 C 162.95 133.29 160.42 131.86 159.15 133.04 Z"></path>
                            <path fill="#ffffff" opacity="1.00" d=" M 149.44 138.66 C 152.66 136.16 157.81 138.99 157.62 143.01 C 157.79 147.01 152.75 149.69 149.51 147.37 C 146.41 145.53 146.40 140.57 149.44 138.66 M 151.08 140.96 C 148.65 142.58 151.37 146.43 153.72 144.67 C 156.03 143.03 153.48 139.21 151.08 140.96 Z"></path>
                            <path fill="#ffffff" opacity="1.00" d=" M 166.14 138.23 C 169.78 136.27 174.50 140.04 173.48 144.02 C 172.84 147.78 167.75 149.59 164.94 146.97 C 162.04 144.69 162.78 139.67 166.14 138.23 M 167.12 140.94 C 164.41 142.42 167.58 146.67 169.66 144.56 C 172.06 143.10 169.36 139.25 167.12 140.94 Z"></path>
                            <path fill="#ffffff" opacity="1.00" d=" M 116.12 142.98 C 118.50 141.78 120.88 140.58 123.28 139.40 C 123.28 141.73 123.28 144.06 123.28 146.39 C 120.88 145.27 118.50 144.13 116.12 142.98 Z"></path>
                            <path fill="#ffffff" opacity="1.00" d=" M 133.41 146.38 C 133.42 144.05 133.42 141.72 133.43 139.40 C 135.69 140.57 137.97 141.71 140.27 142.81 C 138.11 144.22 135.76 145.33 133.41 146.38 Z"></path>
                            <path fill="#ffffff" opacity="1.00" d=" M 158.15 146.10 C 161.84 144.20 166.49 148.06 165.40 152.03 C 164.75 155.73 159.78 157.43 156.98 154.96 C 153.95 152.71 154.69 147.51 158.15 146.10 M 159.14 148.97 C 156.35 150.41 159.37 154.69 161.69 152.63 C 163.93 151.04 161.40 147.38 159.14 148.97 Z"></path>
                            <path fill="#ffffff" opacity="1.00" d=" M 112.42 152.60 C 117.59 150.26 123.87 155.34 122.74 160.87 C 122.09 166.45 114.65 169.40 110.43 165.61 C 105.90 162.27 107.12 154.44 112.42 152.60 M 113.34 155.45 C 110.14 156.72 109.63 161.56 112.51 163.45 C 115.23 165.65 119.68 163.50 119.83 160.07 C 120.25 156.73 116.36 153.91 113.34 155.45 Z"></path>
                            <path fill="#ffffff" opacity="1.00" d=" M 139.44 152.59 C 144.90 150.10 151.49 155.97 149.53 161.66 C 148.33 166.83 141.35 169.18 137.38 165.56 C 132.92 162.19 134.18 154.41 139.44 152.59 M 140.40 155.43 C 137.43 156.58 136.62 160.91 139.02 163.03 C 141.36 165.52 145.94 164.17 146.70 160.89 C 147.85 157.37 143.74 153.77 140.40 155.43 Z"></path>
                        </g>
                    </svg>