<svg width="400pt" height="400pt" viewBox="0 0 400 400" version="1.1" xmlns="http://www.w3.org/2000/svg">
                        <g id="#000000ff">
                            <path fill="#ffffff" opacity="1.00" d=" M 91.29 84.42 C 142.86 83.35 194.44 84.67 246.01 84.05 C 264.95 83.93 284.74 86.70 301.01 97.04 C 305.65 100.22 310.40 103.66 313.59 108.37 C 330.08 138.58 344.21 169.99 359.18 200.96 C 361.56 207.26 365.58 213.16 366.01 220.03 C 366.36 226.45 360.67 230.78 355.76 233.77 C 343.06 240.96 327.96 239.90 313.93 241.34 C 253.29 242.00 192.64 241.60 132.00 241.62 C 112.02 241.06 90.75 238.92 73.87 227.19 C 69.64 223.80 64.41 220.53 63.04 214.92 C 52.15 184.17 45.41 152.20 36.36 120.90 C 34.68 114.62 33.19 107.70 35.66 101.41 C 37.95 95.68 43.76 92.57 49.02 90.04 C 62.27 83.96 77.11 84.98 91.29 84.42 Z"></path>
                            <path fill="#ffffff" opacity="1.00" d=" M 34.76 150.79 C 35.12 151.48 35.48 152.18 35.81 152.90 C 44.75 178.08 47.78 205.50 61.03 229.05 C 70.52 238.19 83.15 243.38 95.83 246.33 C 113.25 250.25 131.23 250.39 149.00 250.37 C 204.65 250.22 260.30 250.60 315.95 250.18 C 324.32 250.08 332.78 250.54 341.04 248.89 C 349.67 247.29 357.90 243.94 365.45 239.50 C 364.93 260.17 367.34 280.97 364.31 301.53 C 364.03 304.28 361.26 305.70 359.40 307.38 C 347.89 315.98 332.86 316.88 319.02 316.94 C 251.70 316.44 184.37 317.75 117.06 316.35 C 105.34 316.53 93.67 313.67 83.00 308.92 C 72.71 304.29 63.15 296.23 59.90 285.06 C 53.56 253.34 41.05 223.11 36.14 191.05 C 34.05 177.76 33.23 164.18 34.76 150.79 M 130.25 270.30 C 125.82 271.13 122.02 274.54 120.65 278.83 C 118.00 286.12 123.29 294.87 130.99 295.82 C 138.55 297.28 146.30 290.64 145.96 282.95 C 146.24 275.01 137.97 268.35 130.25 270.30 M 169.00 276.00 C 169.00 280.67 169.00 285.33 169.00 290.00 C 180.33 290.00 191.67 290.00 203.00 290.00 C 203.00 285.33 203.00 280.67 203.00 276.00 C 191.67 276.00 180.33 276.00 169.00 276.00 M 214.00 276.00 C 214.00 281.00 214.00 286.00 214.00 291.00 C 225.00 291.00 236.00 291.00 247.00 291.00 C 247.00 286.00 247.00 281.00 247.00 276.00 C 236.00 276.00 225.00 276.00 214.00 276.00 Z"></path>
                        </g>
                    </svg>