<svg width="361pt" height="345pt" viewBox="0 0 361 345" version="1.1" xmlns="http://www.w3.org/2000/svg">
                        <g id="#000000dde">
                            <path fill="#ffffff" opacity="1.00" d=" M 93.15 39.01 C 153.72 39.00 214.28 38.99 274.85 39.01 C 274.84 61.02 274.84 83.04 274.85 105.06 C 282.47 105.45 290.32 104.12 297.77 106.15 C 306.15 108.77 312.13 117.20 311.97 125.96 C 312.03 166.99 312.01 208.02 311.98 249.05 C 312.43 260.02 302.94 270.13 291.93 270.15 C 272.57 270.31 253.20 270.17 233.84 270.22 C 234.52 276.07 236.65 281.65 239.74 286.65 C 244.55 286.85 249.37 286.67 254.18 286.74 C 254.19 289.49 254.19 292.24 254.19 295.00 C 207.40 295.00 160.61 295.00 113.81 295.00 C 113.81 292.24 113.81 289.49 113.82 286.74 C 118.64 286.67 123.46 286.86 128.28 286.64 C 131.34 281.64 133.48 276.07 134.16 270.22 C 114.78 270.17 95.40 270.31 76.02 270.15 C 65.05 270.10 55.59 260.03 56.02 249.10 C 55.99 208.04 55.97 166.98 56.03 125.92 C 55.87 116.92 62.22 108.32 70.91 105.94 C 78.19 104.28 85.75 105.39 93.15 105.06 C 93.16 83.04 93.16 61.02 93.15 39.01 M 101.42 47.27 C 101.43 55.52 101.42 63.77 101.43 72.03 C 106.93 72.04 112.43 72.04 117.93 72.03 C 117.94 63.77 117.94 55.52 117.93 47.26 C 112.43 47.28 106.92 47.26 101.42 47.27 M 126.19 47.27 C 126.19 105.07 126.18 162.87 126.19 220.67 C 156.47 220.67 186.75 220.66 217.02 220.67 C 217.03 223.43 217.04 226.18 217.03 228.93 C 175.74 228.94 134.45 228.94 93.15 228.93 C 93.15 190.40 93.16 151.87 93.15 113.33 C 87.31 113.39 81.46 113.21 75.62 113.42 C 69.25 113.76 64.02 119.71 64.28 126.04 C 64.25 163.08 64.27 200.13 64.27 237.18 C 144.09 237.19 223.91 237.19 303.73 237.18 C 303.72 200.12 303.75 163.07 303.72 126.01 C 303.97 119.70 298.76 113.78 292.42 113.42 C 286.56 113.21 280.70 113.38 274.84 113.34 C 274.85 151.87 274.84 190.40 274.84 228.93 C 258.33 228.94 241.81 228.94 225.30 228.93 C 225.29 226.17 225.29 223.42 225.31 220.67 C 230.81 220.67 236.31 220.67 241.81 220.67 C 241.82 162.87 241.81 105.07 241.81 47.27 C 203.27 47.27 164.73 47.27 126.19 47.27 M 250.07 47.26 C 250.06 55.52 250.06 63.77 250.07 72.03 C 255.57 72.04 261.07 72.04 266.57 72.03 C 266.58 63.77 266.57 55.52 266.58 47.27 C 261.07 47.26 255.57 47.28 250.07 47.26 M 101.42 80.30 C 101.42 83.05 101.42 85.79 101.43 88.54 C 106.93 88.55 112.42 88.54 117.92 88.55 C 117.94 85.80 117.94 83.05 117.93 80.29 C 112.43 80.30 106.92 80.29 101.42 80.30 M 250.07 80.29 C 250.06 83.05 250.06 85.80 250.08 88.55 C 255.57 88.54 261.07 88.55 266.57 88.54 C 266.58 85.79 266.58 83.05 266.58 80.30 C 261.08 80.29 255.57 80.31 250.07 80.29 M 101.43 121.57 C 106.92 121.58 112.42 121.57 117.93 121.58 C 117.95 113.33 117.93 105.07 117.93 96.81 C 112.43 96.81 106.93 96.81 101.43 96.81 C 101.41 105.06 101.43 113.32 101.43 121.57 M 250.07 96.81 C 250.06 105.07 250.05 113.33 250.07 121.58 C 255.57 121.57 261.07 121.58 266.57 121.57 C 266.57 113.32 266.59 105.06 266.57 96.81 C 261.07 96.81 255.57 96.81 250.07 96.81 M 101.43 138.09 C 106.93 138.10 112.43 138.10 117.93 138.09 C 117.94 135.34 117.94 132.59 117.93 129.85 C 112.43 129.84 106.93 129.85 101.44 129.84 C 101.42 132.59 101.42 135.34 101.43 138.09 M 250.07 129.85 C 250.06 132.59 250.06 135.34 250.07 138.09 C 255.57 138.10 261.07 138.10 266.57 138.09 C 266.58 135.34 266.58 132.59 266.57 129.84 C 261.07 129.85 255.57 129.84 250.07 129.85 M 101.42 146.37 C 101.49 154.63 101.29 162.91 101.53 171.18 C 106.99 171.06 112.46 171.15 117.93 171.12 C 117.94 162.87 117.94 154.61 117.93 146.36 C 112.43 146.37 106.93 146.35 101.42 146.37 M 250.08 146.35 C 250.05 154.61 250.06 162.87 250.07 171.12 C 255.57 171.13 261.07 171.12 266.57 171.13 C 266.59 162.87 266.57 154.62 266.58 146.37 C 261.07 146.35 255.57 146.37 250.08 146.35 M 101.42 179.39 C 101.42 182.14 101.42 184.89 101.43 187.64 C 106.93 187.65 112.43 187.63 117.93 187.65 C 117.94 184.89 117.94 182.14 117.93 179.39 C 112.43 179.40 106.92 179.39 101.42 179.39 M 250.07 179.39 C 250.06 182.14 250.06 184.89 250.07 187.64 C 255.57 187.63 261.07 187.65 266.57 187.64 C 266.58 184.89 266.58 182.14 266.58 179.39 C 261.07 179.38 255.57 179.40 250.07 179.39 M 101.43 195.91 C 101.42 204.16 101.42 212.41 101.42 220.67 C 106.92 220.68 112.43 220.66 117.93 220.68 C 117.94 212.42 117.94 204.16 117.93 195.91 C 112.43 195.90 106.93 195.90 101.43 195.91 M 250.07 195.91 C 250.06 204.16 250.06 212.42 250.07 220.68 C 255.57 220.66 261.07 220.68 266.58 220.67 C 266.56 212.41 266.61 204.15 266.55 195.90 C 261.05 195.92 255.56 195.89 250.07 195.91 M 64.27 245.45 C 64.29 248.52 64.02 251.75 65.36 254.61 C 67.30 259.10 72.09 262.10 76.98 261.95 C 148.35 261.98 219.72 261.98 291.08 261.95 C 295.68 262.06 300.19 259.41 302.29 255.33 C 303.98 252.32 303.74 248.78 303.73 245.45 C 223.91 245.46 144.09 245.46 64.27 245.45 M 142.50 270.23 C 141.92 275.97 140.26 281.57 137.68 286.73 C 168.56 286.74 199.44 286.73 230.32 286.73 C 227.74 281.57 226.09 275.97 225.50 270.23 C 197.83 270.21 170.17 270.21 142.50 270.23 Z"></path>
                            <path fill="#ffffff" opacity="1.00" d=" M 142.71 76.71 C 171.34 95.79 199.97 114.87 228.59 133.97 C 199.97 153.06 171.34 172.14 142.71 191.22 C 142.70 153.05 142.70 114.88 142.71 76.71 M 150.97 92.15 C 150.97 120.03 150.96 147.91 150.97 175.79 C 171.89 161.86 192.80 147.91 213.71 133.97 C 192.80 120.02 171.89 106.08 150.97 92.15 Z"></path>
                        </g>
                    </svg>