<svg xmlns="http://www.w3.org/2000/svg" version="1.1" viewBox="0 0 50 50" width="50px" height="50px" style="shape-rendering:geometricPrecision; text-rendering:geometricPrecision; image-rendering:optimizeQuality; fill-rule:evenodd; clip-rule:evenodd" xmlns:xlink="http://www.w3.org/1999/xlink">
                        <g><path style="opacity:0.843" fill="#ffffff" d="M 49.5,13.5 C 49.5,14.5 49.5,15.5 49.5,16.5C 48.1667,16.8333 48.1667,17.1667 49.5,17.5C 49.5,19.5 49.5,21.5 49.5,23.5C 48.5111,28.9753 48.1778,34.642 48.5,40.5C 44.1667,40.5 39.8333,40.5 35.5,40.5C 35.168,29.8126 35.5013,19.1459 36.5,8.5C 39.773,7.41495 43.1064,7.24828 46.5,8C 47.9528,9.64872 48.9528,11.4821 49.5,13.5 Z M 37.5,10.5 C 40.5,10.5 43.5,10.5 46.5,10.5C 46.5,19.8333 46.5,29.1667 46.5,38.5C 43.5,38.5 40.5,38.5 37.5,38.5C 37.5,29.1667 37.5,19.8333 37.5,10.5 Z"></path></g>
                        <g><path style="opacity:0.897" fill="#ffffff" d="M 38.5,11.5 C 40.924,11.1924 43.2573,11.5258 45.5,12.5C 44.3333,12.8333 43.1667,13.1667 42,13.5C 40.3189,13.3917 39.1522,12.7251 38.5,11.5 Z"></path></g>
                        <g><path style="opacity:0.805" fill="#ffffff" d="M -0.5,34.5 C -0.5,30.1667 -0.5,25.8333 -0.5,21.5C 0.468218,19.3926 0.801552,17.0593 0.5,14.5C 11.505,14.3335 22.505,14.5002 33.5,15C 34.4808,22.4129 34.8142,29.9129 34.5,37.5C 29.1563,37.334 23.8229,37.5006 18.5,38C 21.8818,38.1764 25.2152,38.6764 28.5,39.5C 20.8333,40.8333 13.1667,40.8333 5.5,39.5C 8.78485,38.6764 12.1182,38.1764 15.5,38C 10.5111,37.5007 5.51108,37.3341 0.5,37.5C 0.737305,36.209 0.403972,35.209 -0.5,34.5 Z M 3.5,16.5 C 12.8393,16.3335 22.1726,16.5002 31.5,17C 32.4692,21.7367 32.8025,26.57 32.5,31.5C 22.5,31.5 12.5,31.5 2.5,31.5C 2.22128,26.4053 2.55462,21.4053 3.5,16.5 Z"></path></g>
                        <g><path style="opacity:0.803" fill="#ffffff" d="M 38.5,14.5 C 40.924,14.1924 43.2573,14.5258 45.5,15.5C 44.3333,15.8333 43.1667,16.1667 42,16.5C 40.3189,16.3917 39.1522,15.7251 38.5,14.5 Z"></path></g>
                        <g><path style="opacity:0.713" fill="#ffffff" d="M 41.5,31.5 C 46.7941,34.9498 46.1274,36.9498 39.5,37.5C 39.2587,35.1137 39.9254,33.1137 41.5,31.5 Z"></path></g>
                    </svg>