<svg xmlns="http://www.w3.org/2000/svg" version="1.1" viewBox="0 0 50 50" width="50px" height="50px" style="shape-rendering:geometricPrecision; text-rendering:geometricPrecision; image-rendering:optimizeQuality; fill-rule:evenodd; clip-rule:evenodd" xmlns:xlink="http://www.w3.org/1999/xlink">
                        <g><path style="opacity:0.898" fill="#ffffff" d="M 0.5,4.5 C 16.5,4.5 32.5,4.5 48.5,4.5C 48.5,14.8333 48.5,25.1667 48.5,35.5C 32.5,35.5 16.5,35.5 0.5,35.5C 0.5,25.1667 0.5,14.8333 0.5,4.5 Z M 23.5,8.5 C 24.1667,11.1667 24.8333,11.1667 25.5,8.5C 26.404,9.20895 26.7373,10.209 26.5,11.5C 25.1667,11.5 23.8333,11.5 22.5,11.5C 22.2627,10.209 22.596,9.20895 23.5,8.5 Z"></path></g>
                        <g><path style="opacity:0.843" fill="#ffffff" d="M 23.5,8.5 C 24.1667,8.5 24.8333,8.5 25.5,8.5C 24.8333,11.1667 24.1667,11.1667 23.5,8.5 Z"></path></g>
                        <g><path style="opacity:0.761" fill="#ffffff" d="M 20.5,36.5 C 23.1667,36.5 25.8333,36.5 28.5,36.5C 28.1966,39.5876 29.5299,41.2542 32.5,41.5C 32.5,42.5 32.5,43.5 32.5,44.5C 26.8236,44.6661 21.1569,44.4994 15.5,44C 16.5046,42.4933 17.838,41.3267 19.5,40.5C 20.2458,39.2638 20.5792,37.9305 20.5,36.5 Z"></path></g>
                    </svg>