<svg width="554pt" height="487pt" viewBox="0 0 554 487" version="1.1" xmlns="http://www.w3.org/2000/svg">
                        <g id="#00LDF">
                            <path fill="#ffffff" opacity="1.00" d=" M 292.12 24.00 C 291.83 20.81 293.91 17.57 297.07 16.79 C 299.69 16.36 302.35 16.56 305.00 16.53 C 372.34 16.54 439.67 16.53 507.01 16.54 C 511.27 15.98 515.26 19.70 514.79 24.00 C 514.80 164.01 514.81 304.03 514.79 444.04 C 515.23 448.31 511.26 451.95 507.07 451.47 C 437.75 451.46 368.44 451.49 299.12 451.45 C 295.58 451.60 292.19 448.66 292.17 445.06 C 292.04 427.04 292.16 409.02 292.11 391.00 C 266.73 391.00 241.36 391.01 215.98 391.00 C 216.06 397.21 215.90 403.42 216.04 409.63 C 232.68 409.57 249.33 409.59 265.97 409.62 C 270.02 409.25 273.62 412.95 273.23 416.98 C 273.19 426.30 273.32 435.63 273.18 444.94 C 273.25 448.67 269.70 451.68 266.07 451.45 C 213.03 451.48 159.99 451.48 106.94 451.45 C 103.25 451.70 99.71 448.65 99.77 444.88 C 99.69 435.31 99.70 425.73 99.76 416.16 C 99.71 412.37 103.31 409.27 107.03 409.62 C 123.67 409.58 140.32 409.60 156.97 409.61 C 157.01 403.40 156.93 397.20 156.98 391.00 C 115.64 391.00 74.29 391.00 32.95 391.01 C 29.78 391.35 26.47 389.48 25.52 386.37 C 24.97 383.95 25.25 381.44 25.19 378.98 C 25.18 309.65 25.22 240.32 25.19 170.99 C 24.80 167.63 26.83 164.01 30.27 163.27 C 32.84 162.89 35.45 163.10 38.04 163.06 C 122.73 163.07 207.42 163.07 292.11 163.06 C 292.12 116.71 292.11 70.36 292.12 24.00 M 305.55 30.00 C 305.55 74.35 305.54 118.71 305.55 163.07 C 317.38 163.09 329.21 163.02 341.04 163.09 C 344.09 162.99 347.01 165.27 347.60 168.28 C 348.04 172.57 347.67 176.89 347.80 181.19 C 388.87 181.21 429.94 181.20 471.01 181.20 C 474.77 180.86 478.31 184.14 478.15 187.94 C 478.25 195.94 478.18 203.96 478.17 211.97 C 478.35 215.78 474.82 219.07 471.06 218.79 C 429.97 218.82 388.88 218.79 347.79 218.80 C 347.76 273.88 347.85 328.96 347.77 384.03 C 348.02 387.71 344.74 391.13 341.05 390.98 C 329.21 391.04 317.38 390.99 305.55 391.00 C 305.55 406.67 305.55 422.33 305.55 438.00 C 370.82 438.00 436.09 437.99 501.36 438.00 C 501.36 302.01 501.36 166.01 501.36 30.02 C 436.09 29.98 370.82 30.02 305.55 30.00 M 38.64 176.47 C 38.64 227.71 38.64 278.95 38.64 330.19 C 137.21 330.21 235.78 330.20 334.35 330.20 C 334.40 278.96 334.29 227.71 334.34 176.48 C 235.78 176.47 137.21 176.46 38.64 176.47 M 347.79 194.60 C 347.79 198.18 347.79 201.75 347.80 205.33 C 386.78 205.33 425.77 205.34 464.76 205.33 C 464.75 201.75 464.76 198.17 464.74 194.59 C 425.76 194.61 386.78 194.59 347.79 194.60 M 38.64 343.67 C 38.63 354.98 38.64 366.28 38.64 377.59 C 137.22 377.60 235.78 377.58 334.35 377.58 C 334.35 366.28 334.36 354.97 334.35 343.67 C 235.78 343.66 137.21 343.66 38.64 343.67 M 170.40 391.01 C 170.42 397.20 170.42 403.40 170.42 409.60 C 181.12 409.59 191.83 409.61 202.53 409.59 C 202.55 403.40 202.53 397.22 202.55 391.03 C 191.84 390.97 181.12 391.01 170.40 391.01 M 113.17 423.07 C 113.16 428.04 113.16 433.01 113.17 437.98 C 162.05 438.02 210.93 437.99 259.80 438.00 C 259.76 433.02 259.80 428.04 259.80 423.07 C 210.92 423.08 162.04 423.08 113.17 423.07 Z"></path>
                            <path fill="#ffffff" opacity="1.00" d=" M 333.33 61.55 C 334.53 61.27 335.76 61.15 337.00 61.19 C 379.65 61.22 422.30 61.19 464.94 61.20 C 467.55 61.23 470.19 61.05 472.79 61.36 C 475.88 61.88 478.25 64.86 478.15 67.98 C 478.25 75.98 478.18 83.99 478.17 91.99 C 478.35 95.78 474.86 99.11 471.10 98.79 C 426.04 98.81 380.98 98.80 335.93 98.80 C 332.13 99.16 328.54 95.83 328.75 92.00 C 328.68 84.02 328.70 76.03 328.75 68.05 C 328.62 65.17 330.58 62.39 333.33 61.55 M 342.16 74.67 C 342.15 78.25 342.15 81.82 342.16 85.40 C 383.03 85.39 423.90 85.43 464.78 85.38 C 464.74 81.81 464.75 78.24 464.76 74.67 C 423.89 74.66 383.03 74.66 342.16 74.67 Z"></path>
                            <path fill="#ffffff" opacity="1.00" d=" M 333.33 121.51 C 334.52 121.24 335.74 121.14 336.99 121.18 C 381.67 121.22 426.35 121.19 471.02 121.20 C 474.79 120.86 478.33 124.17 478.15 127.97 C 478.25 135.99 478.19 144.02 478.17 152.04 C 478.31 155.80 474.82 159.06 471.09 158.78 C 426.05 158.81 381.01 158.80 335.97 158.79 C 332.19 159.12 328.57 155.87 328.75 152.03 C 328.67 144.02 328.70 136.01 328.75 128.01 C 328.63 125.13 330.59 122.37 333.33 121.51 M 342.16 134.60 C 342.16 138.18 342.16 141.75 342.15 145.33 C 383.01 145.34 423.87 145.32 464.73 145.34 C 464.77 141.75 464.77 138.16 464.72 134.58 C 423.87 134.63 383.01 134.58 342.16 134.60 Z"></path>
                            <path fill="#ffffff" opacity="1.00" d=" M 183.48 353.52 C 188.83 350.96 195.49 356.35 194.02 362.11 C 193.19 367.68 185.64 370.34 181.51 366.50 C 177.15 363.11 178.32 355.47 183.48 353.52 Z"></path>
                            <path fill="#ffffff" opacity="1.00" d=" M 396.48 359.74 C 402.34 357.72 409.10 358.37 414.40 361.62 C 420.46 365.21 424.53 371.96 424.78 379.02 C 425.16 386.24 421.53 393.51 415.53 397.56 C 409.65 401.68 401.64 402.47 395.06 399.60 C 387.36 396.38 381.95 388.34 382.08 379.97 C 381.92 371.05 388.04 362.55 396.48 359.74 M 400.45 372.64 C 395.16 374.55 393.79 382.32 398.16 385.89 C 402.23 389.85 409.91 387.55 411.09 381.97 C 412.99 375.99 406.14 369.98 400.45 372.64 Z"></path>
                        </g>
                    </svg>