<?xml version="1.0" encoding="UTF-8"?>
<!DOCTYPE svg PUBLIC "-//W3C//DTD SVG 1.1//EN" "http://www.w3.org/Graphics/SVG/1.1/DTD/svg11.dtd">
<svg xmlns="http://www.w3.org/2000/svg" version="1.1" width="158px" height="156px" style="shape-rendering:geometricPrecision; text-rendering:geometricPrecision; image-rendering:optimizeQuality; fill-rule:evenodd; clip-rule:evenodd" xmlns:xlink="http://www.w3.org/1999/xlink">
<g><path style="opacity:0.914" fill="#fefffe" d="M 106.5,23.5 C 110.013,23.3075 113.346,23.9741 116.5,25.5C 112.182,30.3185 107.682,34.9852 103,39.5C 102.869,43.6496 103.702,47.6496 105.5,51.5C 109.345,53.2963 113.345,54.1297 117.5,54C 122.292,49.7095 126.959,45.2095 131.5,40.5C 135.009,53.6596 130.675,63.493 118.5,70C 112.247,71.2043 105.914,71.871 99.5,72C 88.397,81.1001 77.897,90.9335 68,101.5C 67.3333,102.833 66.6667,104.167 66,105.5C 68.7723,124.666 60.7723,135.999 42,139.5C 39.3472,139.379 36.8472,138.712 34.5,137.5C 39.1544,133.012 43.6544,128.345 48,123.5C 49.1667,112.667 44.3333,107.833 33.5,109C 28.9852,113.682 24.3185,118.182 19.5,122.5C 15.9937,109.336 20.327,99.5029 32.5,93C 39.8333,92 47.1667,91 54.5,90C 64.3333,80.1667 74.1667,70.3333 84,60.5C 85.2043,54.2472 85.871,47.9138 86,41.5C 89.6326,31.692 96.4659,25.692 106.5,23.5 Z"/></g>
<g><path style="opacity:0.833" fill="#fefffe" d="M 28.5,30.5 C 34.252,32.4028 39.4187,35.4028 44,39.5C 45.0587,42.6179 46.3921,45.6179 48,48.5C 54,54.5 60,60.5 66,66.5C 66.1667,70.3333 64.3333,72.1667 60.5,72C 54.5,66 48.5,60 42.5,54C 38.4234,52.2131 34.59,50.0464 31,47.5C 28.6997,43.7318 26.5331,39.8984 24.5,36C 25.6502,34.019 26.9835,32.1857 28.5,30.5 Z"/></g>
<g><path style="opacity:0.926" fill="#fefffe" d="M 92.5,85.5 C 95.2243,87.7173 97.891,90.2173 100.5,93C 102.591,94.6747 104.758,95.1747 107,94.5C 114.333,101.833 121.667,109.167 129,116.5C 130.422,119.03 130.755,121.697 130,124.5C 126.5,128 123,131.5 119.5,135C 116.5,137 113.5,137 110.5,135C 103.667,128.167 96.8333,121.333 90,114.5C 88.9986,108.166 85.6653,103.499 80,100.5C 79.3333,99.8333 79.3333,99.1667 80,98.5C 84.3702,94.2978 88.5368,89.9645 92.5,85.5 Z"/></g>
</svg>
