<?xml version="1.0" encoding="UTF-8"?>
<svg version="1.1" xmlns="http://www.w3.org/2000/svg" width="50" height="50">
<path d="M0 0 C3.75068199 0.45008184 4.78988517 1.50101252 7.125 4.375 C7.49625 3.715 7.8675 3.055 8.25 2.375 C10.125 0.375 10.125 0.375 13.125 -0.125 C16.125 0.375 16.125 0.375 18.0625 2.0625 C19.38985448 4.95144799 18.85191271 6.35204574 18.125 9.375 C19.40697266 9.35759766 19.40697266 9.35759766 20.71484375 9.33984375 C21.81957031 9.33082031 22.92429688 9.32179688 24.0625 9.3125 C25.16464844 9.30089844 26.26679687 9.28929687 27.40234375 9.27734375 C30.125 9.375 30.125 9.375 31.125 10.375 C31.22373816 12.37299572 31.25471799 14.37457158 31.25 16.375 C31.25386719 18.0146875 31.25386719 18.0146875 31.2578125 19.6875 C31.125 22.375 31.125 22.375 30.125 23.375 C29.96674742 25.37282126 29.87380829 27.37588834 29.80859375 29.37890625 C29.77048584 30.47275635 29.73237793 31.56660645 29.69311523 32.69360352 C29.65001221 34.09408936 29.60690918 35.4945752 29.5625 36.9375 C29.418125 41.371875 29.27375 45.80625 29.125 50.375 C14.605 50.375 0.085 50.375 -14.875 50.375 C-15.3125 36.9375 -15.3125 36.9375 -15.44311523 32.69360352 C-15.48122314 31.59975342 -15.51933105 30.50590332 -15.55859375 29.37890625 C-15.59525146 28.25299072 -15.63190918 27.1270752 -15.66967773 25.96704102 C-15.58718045 23.44646559 -15.58718045 23.44646559 -16.875 22.375 C-16.94758946 20.18860547 -16.95873783 17.99999611 -16.9375 15.8125 C-16.92847656 14.61496094 -16.91945313 13.41742188 -16.91015625 12.18359375 C-16.89855469 11.25675781 -16.88695313 10.32992188 -16.875 9.375 C-10.935 8.88 -10.935 8.88 -4.875 8.375 C-4.875 6.395 -4.875 4.415 -4.875 2.375 C-2.875 0.375 -2.875 0.375 0 0 Z M-0.875 4.375 C-0.215 5.695 0.445 7.015 1.125 8.375 C2.115 8.375 3.105 8.375 4.125 8.375 C3.465 7.055 2.805 5.735 2.125 4.375 C1.135 4.375 0.145 4.375 -0.875 4.375 Z M12.125 4.375 C11.465 6.025 10.805 7.675 10.125 9.375 C12.12483534 8.58382096 12.12483534 8.58382096 14.125 7.375 C14.455 6.385 14.785 5.395 15.125 4.375 C14.135 4.375 13.145 4.375 12.125 4.375 Z M-13.875 13.375 C-13.875 15.355 -13.875 17.335 -13.875 19.375 C-0.345 19.375 13.185 19.375 27.125 19.375 C27.125 17.395 27.125 15.415 27.125 13.375 C13.595 13.375 0.065 13.375 -13.875 13.375 Z M-11.875 23.375 C-11.875 31.295 -11.875 39.215 -11.875 47.375 C-7.585 47.375 -3.295 47.375 1.125 47.375 C1.125 39.455 1.125 31.535 1.125 23.375 C-3.165 23.375 -7.455 23.375 -11.875 23.375 Z M5.125 23.375 C5.125 31.295 5.125 39.215 5.125 47.375 C6.445 47.375 7.765 47.375 9.125 47.375 C9.125 39.455 9.125 31.535 9.125 23.375 C7.805 23.375 6.485 23.375 5.125 23.375 Z M13.125 23.375 C13.125 31.295 13.125 39.215 13.125 47.375 C17.085 47.375 21.045 47.375 25.125 47.375 C25.125 39.455 25.125 31.535 25.125 23.375 C21.165 23.375 17.205 23.375 13.125 23.375 Z " fill="#ef9e22" transform="translate(17.875,-0.375)"/>
<path d="M0 0 C3 0.5 3 0.5 4.875 2.5 C5.431875 3.49 5.431875 3.49 6 4.5 C5.34 5.82 4.68 7.14 4 8.5 C4 7.18 4 5.86 4 4.5 C3.0925 4.685625 2.185 4.87125 1.25 5.0625 C-1.68314324 5.45734621 -3.2644657 5.44691572 -6 4.5 C-4.26352951 1.41294135 -3.57626319 0.59604387 0 0 Z " fill="#EA7F2B" transform="translate(31,-0.5)"/>
<path d="M0 0 C0.99 0.33 1.98 0.66 3 1 C3 2.98 3 4.96 3 7 C2.01 6.67 1.02 6.34 0 6 C0 4.02 0 2.04 0 0 Z " fill="#ef9e22" transform="translate(1,12)"/>
</svg>
