<?xml version="1.0" encoding="utf-8"?>
<!-- Generator: Adobe Illustrator 27.1.1, SVG Export Plug-In . SVG Version: 6.00 Build 0)  -->
<svg version="1.1" xmlns="http://www.w3.org/2000/svg" xmlns:xlink="http://www.w3.org/1999/xlink" x="0px" y="0px"
	 viewBox="0 0 60 60" style="enable-background:new 0 0 60 60;" xml:space="preserve">
<style type="text/css">
	.st0{display:none;}
	.st1{display:inline;}
	.st2{fill:#58595B;}
	.st3{display:inline;fill:none;stroke:#ED1C24;stroke-width:0.1;stroke-miterlimit:10;}
</style>
<g id="Layer_1" class="st0">
	<g class="st1">
		<path class="st2" d="M55.12,22.69c-0.12,1.08-0.32,2.15-0.64,3.19c-2.16,6.96-9.1,11.55-16.21,10.77
			C30.76,35.84,25,30.07,24.3,22.68c-0.82-8.61,5.57-16.23,14.19-16.94c0.22-0.02,0.45-0.03,0.67-0.05c0.4-0.03,0.81-0.04,1.22,0
			c0.2,0.02,0.38,0.03,0.58,0.05c6.62,0.53,12.2,5.26,13.8,11.71c0.19,0.76,0.3,1.53,0.38,2.31C55.22,20.74,55.23,21.72,55.12,22.69
			z M39.75,8.51c-6.96-0.02-12.68,5.64-12.7,12.58c-0.03,7.07,5.6,12.79,12.59,12.81c7.02,0.02,12.75-5.62,12.77-12.58
			C52.43,14.23,46.79,8.53,39.75,8.51z"/>
		<path class="st2" d="M21.36,5.64c-0.01,0.79-0.01,1.58-0.02,2.37c0,0.47,0.24,0.73,0.68,0.89c0.7,0.26,1.4,0.54,2.07,0.86
			c0.47,0.23,0.85,0.19,1.2-0.19c0.5-0.55,1.01-1.1,1.52-1.65c0.41,0.41,0.7,0.7,0.95,0.95c-0.99,1.29-1.97,2.55-2.97,3.85
			c-1.75-1.64-3.85-2.44-6.33-2.1c-1.67,0.23-3.09,0.97-4.25,2.18c-2.39,2.48-2.74,6.25-0.88,9.15c1.69,2.64,5.49,4.48,9.63,2.56
			c0.17,0.62,0.33,1.24,0.51,1.93c-0.45,0.17-0.87,0.37-1.31,0.48c-0.62,0.16-0.86,0.52-0.83,1.15c0.03,0.69,0.01,1.37,0.01,2.12
			c-1.21,0-2.37,0-3.64,0c0-0.68-0.02-1.39,0.01-2.08c0.03-0.65-0.22-1-0.87-1.18c-0.6-0.17-1.18-0.44-1.74-0.72
			c-0.74-0.36-0.9-0.36-1.49,0.24c-0.47,0.48-0.92,0.97-1.34,1.42c-0.89-0.9-1.71-1.73-2.6-2.62c0.4-0.4,0.89-0.89,1.38-1.39
			c0.57-0.58,0.57-0.75,0.21-1.49c-0.28-0.58-0.53-1.19-0.73-1.8c-0.17-0.55-0.47-0.81-1.05-0.8c-0.75,0.02-1.5,0.01-2.25,0.02
			c0-1.22,0-2.44,0-3.65c0.75,0,1.5-0.01,2.25,0c0.54,0.01,0.85-0.22,1.03-0.75c0.23-0.67,0.49-1.33,0.81-1.96
			c0.26-0.52,0.23-0.91-0.2-1.3c-0.53-0.49-1.04-1.01-1.46-1.42c0.89-0.91,1.72-1.75,2.59-2.64c0.47,0.48,0.98,1.01,1.48,1.53
			c0.36,0.38,0.73,0.41,1.21,0.18c0.65-0.32,1.33-0.6,2.02-0.84c0.52-0.18,0.76-0.48,0.75-1.03c-0.01-0.75,0-1.5,0-2.25
			C18.92,5.64,20.14,5.64,21.36,5.64z"/>
		<path class="st2" d="M7.96,54.36c0-6.14,0-12.28,0-18.47c2.06,0,4.06,0,6.16,0c0,0.25,0,0.51,0,0.76c0,5.66,0,11.32,0,16.98
			c0,0.24,0.03,0.48,0.05,0.72C12.1,54.36,10.03,54.36,7.96,54.36z M10.25,40.5c0,0.71,0,1.42,0,2.13c0,0.51,0.18,0.88,0.74,0.92
			c0.49,0.04,0.81-0.31,0.81-0.92c0.01-1.4,0.01-2.8,0-4.2c0-0.6-0.33-0.96-0.81-0.92c-0.56,0.04-0.75,0.4-0.75,0.92
			C10.25,39.12,10.25,39.81,10.25,40.5z"/>
		<path class="st2" d="M15.7,39.78c1.95-0.11,3.8,0.02,5.5,0.81c2.24,1.03,4.62,1.41,7.02,1.58c2.43,0.17,4.86,0.16,7.3,0.24
			c0.94,0.03,1.67,0.56,1.96,1.38c0.32,0.89,0.11,1.98-0.63,2.48c-0.45,0.31-1.08,0.5-1.63,0.5c-2.35,0.02-4.71-0.06-7.06-0.09
			c-0.2,0-0.46-0.06-0.59,0.04c-0.24,0.17-0.53,0.43-0.56,0.68c-0.03,0.22,0.24,0.5,0.41,0.73c0.06,0.08,0.22,0.09,0.34,0.09
			c2.68,0.04,5.35,0.11,8.03,0.11c1.12,0,1.99-0.6,2.68-1.48c0.15-0.19,0.32-0.37,0.53-0.48c3.55-1.82,7.11-3.64,10.68-5.45
			c1-0.51,2.08-0.26,2.74,0.57c0.63,0.79,0.66,1.92,0,2.7c-0.27,0.31-0.64,0.57-1.01,0.76c-4.64,2.41-9.35,4.7-13.93,7.23
			c-2.96,1.64-6.04,1.84-9.2,1.25c-2.44-0.45-4.86-1.12-7.23-1.88c-1.56-0.5-3.11-0.9-4.74-0.96c-0.52-0.02-0.68-0.19-0.67-0.72
			c0.03-3.14,0.01-6.29,0.01-9.43C15.67,40.22,15.69,40.02,15.7,39.78z"/>
		<path class="st2" d="M13.69,17.92c0-2.38,1.45-4.51,3.68-5.4c2.19-0.88,4.7-0.33,6.33,1.37c0.23,0.24,0.42,0.44,0.25,0.84
			c-1.02,2.4-1.37,4.91-1.25,7.5c0.02,0.46-0.15,0.68-0.54,0.89C18.33,25.14,13.68,22.3,13.69,17.92z"/>
		<path class="st2" d="M30.38,14.9c1.05-1.05,2-2,3.03-3.03c0.41,0.69,0.72,1.23,1.03,1.76c0.34,0.57,0.75,0.74,1.18,0.49
			c0.42-0.25,0.48-0.69,0.16-1.28c-0.29-0.53-0.6-1.05-0.94-1.64c1.29-0.64,2.59-1,4.08-1.09c0,0.64,0,1.24,0,1.84
			c0.01,0.66,0.28,1.03,0.76,1.05c0.51,0.02,0.8-0.36,0.8-1.06c0-0.58,0-1.17,0-1.82c1.46,0.04,2.76,0.44,4.08,1.06
			c-0.33,0.58-0.64,1.12-0.94,1.66c-0.33,0.6-0.27,1.02,0.17,1.27c0.43,0.25,0.84,0.09,1.18-0.49c0.31-0.52,0.61-1.05,0.95-1.63
			c1.21,0.77,2.15,1.76,2.99,2.96c-0.6,0.35-1.17,0.68-1.73,1.02c-0.37,0.22-0.58,0.51-0.45,0.96c0.15,0.5,0.66,0.69,1.19,0.41
			c0.59-0.31,1.15-0.65,1.78-1.01c0.65,1.29,1,2.6,1.09,4.08c-0.68,0-1.3-0.01-1.93,0c-0.61,0.01-0.96,0.3-0.97,0.78
			c-0.01,0.47,0.35,0.78,0.95,0.78c0.62,0.01,1.25,0,1.94,0c-0.08,1.47-0.45,2.77-1.07,4.09c-0.62-0.35-1.19-0.68-1.76-1.01
			c-0.38-0.21-0.74-0.23-1.05,0.11c-0.36,0.38-0.26,0.91,0.26,1.23c0.55,0.34,1.12,0.66,1.75,1.02c-0.78,1.21-1.75,2.16-2.98,2.99
			c-0.34-0.58-0.64-1.12-0.96-1.66c-0.33-0.55-0.72-0.71-1.14-0.49c-0.45,0.24-0.53,0.68-0.22,1.25c0.3,0.55,0.61,1.09,0.95,1.68
			c-1.28,0.67-2.6,0.99-4.08,1.11c0-0.68,0.01-1.3,0-1.92c-0.01-0.64-0.26-0.97-0.75-0.99c-0.49-0.02-0.8,0.35-0.81,0.99
			c-0.01,0.61,0,1.21,0,1.89c-1.47-0.05-2.78-0.44-4.08-1.07c0.35-0.61,0.67-1.15,0.97-1.7c0.29-0.53,0.2-1-0.23-1.2
			c-0.5-0.24-0.85-0.02-1.11,0.42c-0.31,0.54-0.63,1.08-0.99,1.69c-1.2-0.8-2.14-1.77-2.99-2.98c0.61-0.36,1.17-0.69,1.74-1.03
			c0.43-0.25,0.59-0.61,0.39-1.08c-0.18-0.42-0.66-0.54-1.14-0.28c-0.57,0.31-1.13,0.64-1.75,1c-0.69-1.28-1-2.6-1.12-4.08
			c0.7,0,1.32,0.01,1.95,0c0.61-0.01,0.95-0.3,0.95-0.78c0-0.48-0.35-0.77-0.96-0.78c-0.62-0.01-1.24,0-1.92,0
			c0.08-1.48,0.45-2.78,1.08-4.08c0.57,0.33,1.09,0.63,1.62,0.92c0.58,0.33,1.03,0.27,1.28-0.15c0.25-0.43,0.08-0.85-0.48-1.19
			C31.62,15.62,31.1,15.32,30.38,14.9z M42.83,21.59c-0.06-1.58-0.57-2.52-1.65-3.1c-1.09-0.59-2.21-0.55-3.22,0.17
			c-0.41,0.29-0.68,0.26-1.07,0.02c-0.72-0.45-1.47-0.86-2.21-1.29c-0.45-0.26-0.86-0.26-1.17,0.19c-0.28,0.4-0.12,0.85,0.4,1.16
			c0.78,0.47,1.57,0.93,2.37,1.37c0.31,0.17,0.4,0.35,0.35,0.72c-0.21,1.63,0.92,3.34,2.51,3.37c1.24,0.03,1.86,0.48,2.29,1.51
			c0.19,0.46,0.65,0.58,1.08,0.33c0.43-0.25,0.5-0.67,0.25-1.11c-0.22-0.39-0.48-0.76-0.66-1.17c-0.08-0.17-0.03-0.44,0.04-0.63
			C42.4,22.52,42.69,21.91,42.83,21.59z"/>
		<path class="st2" d="M38.17,21.18c0.01-0.85,0.72-1.53,1.57-1.52c0.84,0.01,1.53,0.71,1.53,1.56c0,0.87-0.73,1.58-1.6,1.55
			C38.82,22.73,38.15,22.03,38.17,21.18z"/>
	</g>
</g>
<g id="Layer_3">
	<g>
		<path class="st2" d="M20.89,35.77c1.78,3.28,4.41,5.84,6.87,8.68c0.38-1.48,0.74-2.84,1.07-4.2c0.03-0.11-0.06-0.29-0.15-0.39
			c-0.61-0.68-0.81-1.25-0.75-2.3c1.37,0,2.74,0,4.17,0c0.02,0.82-0.06,1.6-0.69,2.21c-0.23,0.22-0.28,0.41-0.2,0.72
			c0.35,1.28,0.67,2.56,1.04,3.97c2.46-2.83,5.1-5.4,6.84-8.63c1.31,0.1,2.65,0.19,3.98,0.31c2.68,0.23,5.2,0.83,7.14,2.9
			c1.24,1.33,2.2,2.83,2.87,4.5c0.45,1.13,0.91,2.28,1.14,3.47c0.42,2.07-0.25,3.81-2.03,5.04c-1.75,1.2-3.73,1.82-5.77,2.3
			c-3.27,0.78-6.61,1.15-9.96,1.37c-3.88,0.26-7.75,0.28-11.63,0.08c-4.53-0.24-9.04-0.64-13.38-2.07c-1.26-0.42-2.5-1-3.62-1.7
			C5.99,50.87,5.36,49.06,5.79,47c0.56-2.67,1.68-5.13,3.4-7.27c1.58-1.96,3.64-3.08,6.12-3.38c1.49-0.18,2.98-0.28,4.47-0.42
			C20.18,35.89,20.56,35.81,20.89,35.77z"/>
		<path class="st2" d="M30.04,4.07c2.35,0.01,4.61,0.4,6.68,1.57c3.08,1.73,4.78,4.46,5.38,7.86c0.24,1.36,0.2,2.77,0.29,4.16
			c0.01,0.15,0,0.36,0.09,0.43c0.65,0.53,0.72,1.28,0.77,2.01c0.09,1.4-0.15,2.76-0.78,4.01c-0.26,0.51-0.74,0.92-1.11,1.38
			c-0.1,0.13-0.2,0.28-0.26,0.43c-1.07,2.65-2.5,5.06-4.56,7.06c-1.44,1.4-3.09,2.48-5.11,2.85c-2.48,0.45-4.67-0.27-6.63-1.76
			c-2.7-2.05-4.44-4.81-5.75-7.88c-0.14-0.32-0.42-0.59-0.64-0.88c-0.22-0.29-0.5-0.54-0.66-0.85c-0.83-1.6-1.16-3.31-0.85-5.1
			c0.06-0.34,0.18-0.74,0.41-0.98c0.32-0.33,0.35-0.64,0.33-1.05c-0.09-2.48,0.24-4.88,1.37-7.13c1.66-3.32,4.4-5.21,8.02-5.84
			C28,4.2,29.03,4.17,30.04,4.07z M20.03,19.56c-0.8,0.03-1.01,0.16-1.13,0.89c-0.23,1.34,0,2.61,0.73,3.76
			c0.14,0.22,0.41,0.49,0.62,0.49c0.47,0,0.54,0.28,0.67,0.61c1.03,2.68,2.48,5.07,4.79,6.85c1.75,1.35,3.7,1.96,5.91,1.37
			c1.98-0.53,3.46-1.81,4.73-3.35c1.24-1.5,2.15-3.19,2.82-5.01c0.06-0.16,0.23-0.41,0.35-0.41c0.45-0.01,0.71-0.26,0.91-0.59
			c0.69-1.15,0.93-2.41,0.7-3.72c-0.13-0.77-0.39-0.92-1.18-0.81c-0.29-1.71-1.03-3.18-2.5-4.39c0.14,0.42,0.23,0.71,0.35,1.09
			c-0.72-0.35-1.31-0.73-1.96-0.93c-0.64-0.2-1.38-0.44-2-0.3c-2.86,0.65-5.66,0.62-8.46-0.27c-1.27-0.41-2.36-0.09-3.31,0.84
			C20.98,16.74,20.4,18.08,20.03,19.56z"/>
	</g>
</g>
<g id="Layer_2" class="st0">
	<circle class="st3" cx="30" cy="30" r="29.5"/>
</g>
</svg>
