<?xml version="1.0" encoding="utf-8"?>
<!-- Generator: Adobe Illustrator 27.1.1, SVG Export Plug-In . SVG Version: 6.00 Build 0)  -->
<svg version="1.1" xmlns="http://www.w3.org/2000/svg" xmlns:xlink="http://www.w3.org/1999/xlink" x="0px" y="0px"
	 viewBox="0 0 60 60" style="enable-background:new 0 0 60 60;" xml:space="preserve">
<style type="text/css">
	.st0{display:none;}
	.st1{display:inline;}
	.st2{fill:#58595B;}
	.st3{fill:#FFFFFF;}
	.st4{display:inline;fill:none;stroke:#ED1C24;stroke-width:0.1;stroke-miterlimit:10;}
</style>
<g id="Layer_1" class="st0">
	<g class="st1">
		<path class="st2" d="M55.12,22.69c-0.12,1.08-0.32,2.15-0.64,3.19c-2.16,6.96-9.1,11.55-16.21,10.77
			C30.76,35.84,25,30.07,24.3,22.68c-0.82-8.61,5.57-16.23,14.19-16.94c0.22-0.02,0.45-0.03,0.67-0.05c0.4-0.03,0.81-0.04,1.22,0
			c0.2,0.02,0.38,0.03,0.58,0.05c6.62,0.53,12.2,5.26,13.8,11.71c0.19,0.76,0.3,1.53,0.38,2.31C55.22,20.74,55.23,21.72,55.12,22.69
			z M39.75,8.51c-6.96-0.02-12.68,5.64-12.7,12.58c-0.03,7.07,5.6,12.79,12.59,12.81c7.02,0.02,12.75-5.62,12.77-12.58
			C52.43,14.23,46.79,8.53,39.75,8.51z"/>
		<path class="st2" d="M21.36,5.64c-0.01,0.79-0.01,1.58-0.02,2.37c0,0.47,0.24,0.73,0.68,0.89c0.7,0.26,1.4,0.54,2.07,0.86
			c0.47,0.23,0.85,0.19,1.2-0.19c0.5-0.55,1.01-1.1,1.52-1.65c0.41,0.41,0.7,0.7,0.95,0.95c-0.99,1.29-1.97,2.55-2.97,3.85
			c-1.75-1.64-3.85-2.44-6.33-2.1c-1.67,0.23-3.09,0.97-4.25,2.18c-2.39,2.48-2.74,6.25-0.88,9.15c1.69,2.64,5.49,4.48,9.63,2.56
			c0.17,0.62,0.33,1.24,0.51,1.93c-0.45,0.17-0.87,0.37-1.31,0.48c-0.62,0.16-0.86,0.52-0.83,1.15c0.03,0.69,0.01,1.37,0.01,2.12
			c-1.21,0-2.37,0-3.64,0c0-0.68-0.02-1.39,0.01-2.08c0.03-0.65-0.22-1-0.87-1.18c-0.6-0.17-1.18-0.44-1.74-0.72
			c-0.74-0.36-0.9-0.36-1.49,0.24c-0.47,0.48-0.92,0.97-1.34,1.42c-0.89-0.9-1.71-1.73-2.6-2.62c0.4-0.4,0.89-0.89,1.38-1.39
			c0.57-0.58,0.57-0.75,0.21-1.49c-0.28-0.58-0.53-1.19-0.73-1.8c-0.17-0.55-0.47-0.81-1.05-0.8c-0.75,0.02-1.5,0.01-2.25,0.02
			c0-1.22,0-2.44,0-3.65c0.75,0,1.5-0.01,2.25,0c0.54,0.01,0.85-0.22,1.03-0.75c0.23-0.67,0.49-1.33,0.81-1.96
			c0.26-0.52,0.23-0.91-0.2-1.3c-0.53-0.49-1.04-1.01-1.46-1.42c0.89-0.91,1.72-1.75,2.59-2.64c0.47,0.48,0.98,1.01,1.48,1.53
			c0.36,0.38,0.73,0.41,1.21,0.18c0.65-0.32,1.33-0.6,2.02-0.84c0.52-0.18,0.76-0.48,0.75-1.03c-0.01-0.75,0-1.5,0-2.25
			C18.92,5.64,20.14,5.64,21.36,5.64z"/>
		<path class="st2" d="M7.96,54.36c0-6.14,0-12.28,0-18.47c2.06,0,4.06,0,6.16,0c0,0.25,0,0.51,0,0.76c0,5.66,0,11.32,0,16.98
			c0,0.24,0.03,0.48,0.05,0.72C12.1,54.36,10.03,54.36,7.96,54.36z M10.25,40.5c0,0.71,0,1.42,0,2.13c0,0.51,0.18,0.88,0.74,0.92
			c0.49,0.04,0.81-0.31,0.81-0.92c0.01-1.4,0.01-2.8,0-4.2c0-0.6-0.33-0.96-0.81-0.92c-0.56,0.04-0.75,0.4-0.75,0.92
			C10.25,39.12,10.25,39.81,10.25,40.5z"/>
		<path class="st2" d="M15.7,39.78c1.95-0.11,3.8,0.02,5.5,0.81c2.24,1.03,4.62,1.41,7.02,1.58c2.43,0.17,4.86,0.16,7.3,0.24
			c0.94,0.03,1.67,0.56,1.96,1.38c0.32,0.89,0.11,1.98-0.63,2.48c-0.45,0.31-1.08,0.5-1.63,0.5c-2.35,0.02-4.71-0.06-7.06-0.09
			c-0.2,0-0.46-0.06-0.59,0.04c-0.24,0.17-0.53,0.43-0.56,0.68c-0.03,0.22,0.24,0.5,0.41,0.73c0.06,0.08,0.22,0.09,0.34,0.09
			c2.68,0.04,5.35,0.11,8.03,0.11c1.12,0,1.99-0.6,2.68-1.48c0.15-0.19,0.32-0.37,0.53-0.48c3.55-1.82,7.11-3.64,10.68-5.45
			c1-0.51,2.08-0.26,2.74,0.57c0.63,0.79,0.66,1.92,0,2.7c-0.27,0.31-0.64,0.57-1.01,0.76c-4.64,2.41-9.35,4.7-13.93,7.23
			c-2.96,1.64-6.04,1.84-9.2,1.25c-2.44-0.45-4.86-1.12-7.23-1.88c-1.56-0.5-3.11-0.9-4.74-0.96c-0.52-0.02-0.68-0.19-0.67-0.72
			c0.03-3.14,0.01-6.29,0.01-9.43C15.67,40.22,15.69,40.02,15.7,39.78z"/>
		<path class="st2" d="M13.69,17.92c0-2.38,1.45-4.51,3.68-5.4c2.19-0.88,4.7-0.33,6.33,1.37c0.23,0.24,0.42,0.44,0.25,0.84
			c-1.02,2.4-1.37,4.91-1.25,7.5c0.02,0.46-0.15,0.68-0.54,0.89C18.33,25.14,13.68,22.3,13.69,17.92z"/>
		<path class="st2" d="M30.38,14.9c1.05-1.05,2-2,3.03-3.03c0.41,0.69,0.72,1.23,1.03,1.76c0.34,0.57,0.75,0.74,1.18,0.49
			c0.42-0.25,0.48-0.69,0.16-1.28c-0.29-0.53-0.6-1.05-0.94-1.64c1.29-0.64,2.59-1,4.08-1.09c0,0.64,0,1.24,0,1.84
			c0.01,0.66,0.28,1.03,0.76,1.05c0.51,0.02,0.8-0.36,0.8-1.06c0-0.58,0-1.17,0-1.82c1.46,0.04,2.76,0.44,4.08,1.06
			c-0.33,0.58-0.64,1.12-0.94,1.66c-0.33,0.6-0.27,1.02,0.17,1.27c0.43,0.25,0.84,0.09,1.18-0.49c0.31-0.52,0.61-1.05,0.95-1.63
			c1.21,0.77,2.15,1.76,2.99,2.96c-0.6,0.35-1.17,0.68-1.73,1.02c-0.37,0.22-0.58,0.51-0.45,0.96c0.15,0.5,0.66,0.69,1.19,0.41
			c0.59-0.31,1.15-0.65,1.78-1.01c0.65,1.29,1,2.6,1.09,4.08c-0.68,0-1.3-0.01-1.93,0c-0.61,0.01-0.96,0.3-0.97,0.78
			c-0.01,0.47,0.35,0.78,0.95,0.78c0.62,0.01,1.25,0,1.94,0c-0.08,1.47-0.45,2.77-1.07,4.09c-0.62-0.35-1.19-0.68-1.76-1.01
			c-0.38-0.21-0.74-0.23-1.05,0.11c-0.36,0.38-0.26,0.91,0.26,1.23c0.55,0.34,1.12,0.66,1.75,1.02c-0.78,1.21-1.75,2.16-2.98,2.99
			c-0.34-0.58-0.64-1.12-0.96-1.66c-0.33-0.55-0.72-0.71-1.14-0.49c-0.45,0.24-0.53,0.68-0.22,1.25c0.3,0.55,0.61,1.09,0.95,1.68
			c-1.28,0.67-2.6,0.99-4.08,1.11c0-0.68,0.01-1.3,0-1.92c-0.01-0.64-0.26-0.97-0.75-0.99c-0.49-0.02-0.8,0.35-0.81,0.99
			c-0.01,0.61,0,1.21,0,1.89c-1.47-0.05-2.78-0.44-4.08-1.07c0.35-0.61,0.67-1.15,0.97-1.7c0.29-0.53,0.2-1-0.23-1.2
			c-0.5-0.24-0.85-0.02-1.11,0.42c-0.31,0.54-0.63,1.08-0.99,1.69c-1.2-0.8-2.14-1.77-2.99-2.98c0.61-0.36,1.17-0.69,1.74-1.03
			c0.43-0.25,0.59-0.61,0.39-1.08c-0.18-0.42-0.66-0.54-1.14-0.28c-0.57,0.31-1.13,0.64-1.75,1c-0.69-1.28-1-2.6-1.12-4.08
			c0.7,0,1.32,0.01,1.95,0c0.61-0.01,0.95-0.3,0.95-0.78c0-0.48-0.35-0.77-0.96-0.78c-0.62-0.01-1.24,0-1.92,0
			c0.08-1.48,0.45-2.78,1.08-4.08c0.57,0.33,1.09,0.63,1.62,0.92c0.58,0.33,1.03,0.27,1.28-0.15c0.25-0.43,0.08-0.85-0.48-1.19
			C31.62,15.62,31.1,15.32,30.38,14.9z M42.83,21.59c-0.06-1.58-0.57-2.52-1.65-3.1c-1.09-0.59-2.21-0.55-3.22,0.17
			c-0.41,0.29-0.68,0.26-1.07,0.02c-0.72-0.45-1.47-0.86-2.21-1.29c-0.45-0.26-0.86-0.26-1.17,0.19c-0.28,0.4-0.12,0.85,0.4,1.16
			c0.78,0.47,1.57,0.93,2.37,1.37c0.31,0.17,0.4,0.35,0.35,0.72c-0.21,1.63,0.92,3.34,2.51,3.37c1.24,0.03,1.86,0.48,2.29,1.51
			c0.19,0.46,0.65,0.58,1.08,0.33c0.43-0.25,0.5-0.67,0.25-1.11c-0.22-0.39-0.48-0.76-0.66-1.17c-0.08-0.17-0.03-0.44,0.04-0.63
			C42.4,22.52,42.69,21.91,42.83,21.59z"/>
		<path class="st2" d="M38.17,21.18c0.01-0.85,0.72-1.53,1.57-1.52c0.84,0.01,1.53,0.71,1.53,1.56c0,0.87-0.73,1.58-1.6,1.55
			C38.82,22.73,38.15,22.03,38.17,21.18z"/>
	</g>
</g>
<g id="Layer_3" class="st0">
	<g class="st1">
		<path class="st2" d="M20.89,35.77c1.78,3.28,4.41,5.84,6.87,8.68c0.38-1.48,0.74-2.84,1.07-4.2c0.03-0.11-0.06-0.29-0.15-0.39
			c-0.61-0.68-0.81-1.25-0.75-2.3c1.37,0,2.74,0,4.17,0c0.02,0.82-0.06,1.6-0.69,2.21c-0.23,0.22-0.28,0.41-0.2,0.72
			c0.35,1.28,0.67,2.56,1.04,3.97c2.46-2.83,5.1-5.4,6.84-8.63c1.31,0.1,2.65,0.19,3.98,0.31c2.68,0.23,5.2,0.83,7.14,2.9
			c1.24,1.33,2.2,2.83,2.87,4.5c0.45,1.13,0.91,2.28,1.14,3.47c0.42,2.07-0.25,3.81-2.03,5.04c-1.75,1.2-3.73,1.82-5.77,2.3
			c-3.27,0.78-6.61,1.15-9.96,1.37c-3.88,0.26-7.75,0.28-11.63,0.08c-4.53-0.24-9.04-0.64-13.38-2.07c-1.26-0.42-2.5-1-3.62-1.7
			C5.99,50.87,5.36,49.06,5.79,47c0.56-2.67,1.68-5.13,3.4-7.27c1.58-1.96,3.64-3.08,6.12-3.38c1.49-0.18,2.98-0.28,4.47-0.42
			C20.18,35.89,20.56,35.81,20.89,35.77z"/>
		<path class="st2" d="M30.04,4.07c2.35,0.01,4.61,0.4,6.68,1.57c3.08,1.73,4.78,4.46,5.38,7.86c0.24,1.36,0.2,2.77,0.29,4.16
			c0.01,0.15,0,0.36,0.09,0.43c0.65,0.53,0.72,1.28,0.77,2.01c0.09,1.4-0.15,2.76-0.78,4.01c-0.26,0.51-0.74,0.92-1.11,1.38
			c-0.1,0.13-0.2,0.28-0.26,0.43c-1.07,2.65-2.5,5.06-4.56,7.06c-1.44,1.4-3.09,2.48-5.11,2.85c-2.48,0.45-4.67-0.27-6.63-1.76
			c-2.7-2.05-4.44-4.81-5.75-7.88c-0.14-0.32-0.42-0.59-0.64-0.88c-0.22-0.29-0.5-0.54-0.66-0.85c-0.83-1.6-1.16-3.31-0.85-5.1
			c0.06-0.34,0.18-0.74,0.41-0.98c0.32-0.33,0.35-0.64,0.33-1.05c-0.09-2.48,0.24-4.88,1.37-7.13c1.66-3.32,4.4-5.21,8.02-5.84
			C28,4.2,29.03,4.17,30.04,4.07z M20.03,19.56c-0.8,0.03-1.01,0.16-1.13,0.89c-0.23,1.34,0,2.61,0.73,3.76
			c0.14,0.22,0.41,0.49,0.62,0.49c0.47,0,0.54,0.28,0.67,0.61c1.03,2.68,2.48,5.07,4.79,6.85c1.75,1.35,3.7,1.96,5.91,1.37
			c1.98-0.53,3.46-1.81,4.73-3.35c1.24-1.5,2.15-3.19,2.82-5.01c0.06-0.16,0.23-0.41,0.35-0.41c0.45-0.01,0.71-0.26,0.91-0.59
			c0.69-1.15,0.93-2.41,0.7-3.72c-0.13-0.77-0.39-0.92-1.18-0.81c-0.29-1.71-1.03-3.18-2.5-4.39c0.14,0.42,0.23,0.71,0.35,1.09
			c-0.72-0.35-1.31-0.73-1.96-0.93c-0.64-0.2-1.38-0.44-2-0.3c-2.86,0.65-5.66,0.62-8.46-0.27c-1.27-0.41-2.36-0.09-3.31,0.84
			C20.98,16.74,20.4,18.08,20.03,19.56z"/>
	</g>
</g>
<g id="Layer_4" class="st0">
	<g class="st1">
		<path class="st2" d="M44.79,12.5c-0.23,1.4,0.45,2.36,1.5,3.17c0.43,0.33,0.82,0.71,1.2,1.1c0.59,0.61,0.72,1.33,0.36,2.11
			c-0.22,0.49-0.46,0.98-0.7,1.47c-0.33,0.67-0.37,1.35-0.1,2.04c0.16,0.41,0.34,0.82,0.51,1.23c0.11,0.27,0.24,0.54,0.33,0.82
			c0.4,1.14,0.23,1.74-0.69,2.52c-0.35,0.29-0.71,0.58-1.07,0.85c-0.67,0.5-0.99,1.18-1.03,2c-0.04,0.7-0.08,1.4-0.13,2.1
			c-0.08,1.01-0.61,1.64-1.61,1.86c-0.52,0.11-1.03,0.24-1.55,0.36c-0.68,0.16-1.22,0.52-1.58,1.13c-0.25,0.42-0.49,0.86-0.73,1.29
			c-0.1,0.17-0.19,0.35-0.29,0.52c-0.74,1.21-1.32,1.46-2.72,1.16c-0.41-0.09-0.82-0.18-1.23-0.27c-0.72-0.16-1.4-0.06-2.02,0.37
			c-0.23,0.16-0.47,0.31-0.71,0.48c-0.28,0.2-0.56,0.41-0.84,0.6c-1.29,0.87-1.91,0.85-3.14-0.08c-0.28-0.22-0.57-0.43-0.84-0.66
			c-0.68-0.58-1.47-0.71-2.33-0.57c-0.8,0.13-1.61,0.26-2.42,0.34c-0.73,0.07-1.3-0.26-1.66-0.9c-0.26-0.45-0.5-0.91-0.71-1.38
			c-0.39-0.87-1.03-1.42-1.95-1.66c-0.6-0.15-1.19-0.31-1.78-0.5c-1.25-0.4-1.64-0.94-1.66-2.25c-0.01-0.47,0-0.94-0.01-1.41
			c-0.01-0.66-0.25-1.23-0.74-1.68c-0.34-0.32-0.7-0.63-1.04-0.94c-0.21-0.19-0.43-0.37-0.63-0.57c-0.92-0.9-1.04-1.52-0.51-2.69
			c0.2-0.45,0.42-0.89,0.64-1.34c0.29-0.62,0.29-1.24,0.04-1.87c-0.22-0.56-0.47-1.11-0.7-1.67c-0.63-1.53-0.47-2.11,0.81-3.14
			c0.26-0.21,0.52-0.42,0.79-0.62c0.67-0.51,1.01-1.19,1.05-2.03c0.04-0.7,0.08-1.4,0.14-2.1c0.08-0.97,0.59-1.6,1.55-1.83
			c0.52-0.12,1.03-0.25,1.55-0.36c0.75-0.17,1.32-0.58,1.71-1.25c0.2-0.34,0.39-0.69,0.58-1.03c0.08-0.15,0.16-0.31,0.25-0.46
			c0.83-1.45,1.42-1.7,3.04-1.33c0.36,0.08,0.72,0.16,1.08,0.24c0.66,0.14,1.28,0.06,1.85-0.31c0.26-0.17,0.52-0.34,0.77-0.51
			c0.31-0.22,0.62-0.45,0.94-0.66c1.26-0.84,1.87-0.82,3.08,0.1c0.29,0.22,0.59,0.45,0.87,0.69c0.67,0.56,1.45,0.7,2.29,0.56
			c0.57-0.1,1.14-0.2,1.71-0.29c0.21-0.03,0.42-0.04,0.63-0.05c0.84-0.05,1.45,0.31,1.84,1.05c0.23,0.42,0.45,0.85,0.65,1.29
			c0.37,0.82,0.97,1.35,1.84,1.59c0.45,0.12,0.9,0.25,1.35,0.38c0.23,0.06,0.45,0.14,0.67,0.21c1.01,0.32,1.52,1,1.5,2.07
			C44.79,12,44.79,12.25,44.79,12.5z M30.01,7.13c-8.06-0.01-14.67,6.56-14.68,14.61c-0.02,8.14,6.53,14.75,14.61,14.75
			c8.13,0.01,14.73-6.54,14.74-14.62C44.68,13.73,38.13,7.14,30.01,7.13z"/>
		<path class="st2" d="M8.7,50.01c0.14-0.25,0.26-0.46,0.38-0.67c2.61-4.53,5.23-9.06,7.84-13.6c0.14-0.24,0.27-0.26,0.53-0.2
			c1.12,0.26,1.88,0.92,2.32,1.98c0.17,0.41,0.39,0.8,0.6,1.19c0.41,0.76,1.06,1.13,1.92,1.06c0.71-0.07,1.42-0.16,2.12-0.31
			c1.21-0.27,2.24-0.01,3.15,0.82c0.31,0.28,0.66,0.52,1.03,0.81c-2.94,5.09-5.88,10.18-8.85,15.33c-0.12-0.26-0.22-0.45-0.3-0.65
			c-0.86-1.96-1.72-3.91-2.56-5.87c-0.12-0.28-0.28-0.34-0.56-0.32c-2.45,0.16-4.9,0.31-7.35,0.45C8.89,50.04,8.82,50.03,8.7,50.01z
			"/>
		<path class="st2" d="M40.27,56.43c-2.95-5.11-5.85-10.14-8.77-15.19c0.89-0.59,1.75-1.18,2.63-1.74c0.58-0.36,1.22-0.34,1.87-0.21
			c0.58,0.12,1.16,0.25,1.74,0.36c0.92,0.18,1.63-0.16,2.12-0.93c0.31-0.48,0.56-0.98,0.86-1.47c0.27-0.44,0.54-0.88,0.85-1.29
			c0.29-0.39,0.73-0.56,1.22-0.7c2.83,4.91,5.66,9.81,8.52,14.75c-0.15,0.01-0.24,0.02-0.33,0.01c-2.45-0.15-4.9-0.29-7.35-0.45
			c-0.28-0.02-0.39,0.08-0.49,0.31c-0.87,2.01-1.76,4.02-2.64,6.03C40.43,56.07,40.37,56.21,40.27,56.43z"/>
		<path class="st2" d="M30.02,8.98c7.13,0.05,12.86,5.82,12.81,12.88c-0.06,7.16-5.83,12.83-13.02,12.78
			c-6.96-0.06-12.7-5.89-12.64-12.86C17.23,14.67,22.98,8.93,30.02,8.98z M38.4,17.53c-0.69-0.69-1.38-1.39-2.12-2.13
			c-2.83,2.84-5.66,5.68-8.54,8.56c-1.37-1.39-2.71-2.74-4.02-4.06c-0.74,0.72-1.45,1.42-2.12,2.08c2.05,2.06,4.12,4.12,6.16,6.17
			C31.31,24.63,34.85,21.08,38.4,17.53z"/>
	</g>
</g>
<g id="Layer_5">
	<path d="M1.24,93.73c-1.61,1.87-3.16,3.66-4.85,5.62c0.4,0.77,0.69,1.89,0.1,3.08c-0.59,1.19-1.78,1.44-2.79,2.05
		c-0.83,0.51-0.48,2.27-1.78,2.71c-0.85,0.29-1.77,0.38-2.76,0.59c-0.39,1.87-1.53,3.04-3.7,2.98c-0.18-0.01-0.44,0.17-0.55,0.34
		c-1.45,2.02-2.83,2.58-5.35,1.89c-1.42-0.39-2.76-1.03-4.15-1.53c-0.33-0.12-0.81-0.24-1.07-0.1c-2.81,1.51-4.32,1.05-5.59-1.78
		c-2.67-0.26-3.12-0.58-4.11-2.89c-2.94-0.28-3.82-1.25-3.8-4.21c-2.92-1.56-3.4-3.23-1.64-5.87c-0.83-1.47-1.67-2.96-2.51-4.45
		c-0.04,0.1-0.09,0.21-0.13,0.31c-0.67-0.17-1.43-0.19-1.98-0.53c-1.46-0.9-2.82-1.97-4.24-2.93c-0.78-0.53-0.96-1.04-0.36-1.87
		c3.3-4.61,6.59-9.25,9.84-13.9c0.61-0.88,1.17-0.9,1.97-0.3c1.32,0.98,2.65,1.94,4.03,2.82c1.02,0.65,1.49,1.33,0.49,2.42
		c1.48,1.21,3.05,1.92,4.94,1.97c1.51,0.05,3.02,0.29,4.53,0.36c0.52,0.02,1.2-0.09,1.55-0.41c1.65-1.55,3.5-2.09,5.72-1.66
		c2.35,0.45,4.71,0.91,7.09,1.14c1.38,0.13,2.81-0.17,4.26-0.29c-0.46-2-0.46-2.01,1.15-2.76c1.34-0.63,2.69-1.22,4.02-1.86
		c0.79-0.38,1.32-0.29,1.72,0.59c2.38,5.2,4.78,10.38,7.19,15.56c0.41,0.89,0.21,1.4-0.69,1.78c-1.4,0.59-2.76,1.26-4.14,1.9
		C2.21,95.17,2.11,95.14,1.24,93.73z M-16.59,110.33c-1.45-0.87-2.83-1.67-4.19-2.51c-0.54-0.34-1.44-0.62-0.9-1.5
		c0.58-0.95,1.25-0.2,1.83,0.12c1.22,0.68,2.38,1.47,3.64,2.08c0.65,0.32,1.44,0.45,2.18,0.5c0.84,0.05,1.4-0.55,1.42-1.31
		c0.01-0.4-0.43-0.94-0.81-1.2c-1.66-1.11-3.4-2.1-5.04-3.23c-0.39-0.27-0.83-1.05-0.7-1.35c0.38-0.84,1.04-0.37,1.59-0.02
		c1.73,1.08,3.42,2.23,5.2,3.22c0.81,0.44,1.79,0.67,2.71,0.75c0.4,0.04,1.14-0.45,1.22-0.81c0.1-0.44-0.2-1.16-0.57-1.47
		c-1.35-1.12-2.81-2.11-4.22-3.16c-0.83-0.62-1.68-1.24-2.42-1.96c-0.24-0.24-0.16-0.81-0.22-1.23c0.4-0.02,0.82-0.12,1.19-0.04
		c0.28,0.06,0.5,0.37,0.76,0.57c1.98,1.49,3.93,3.01,5.95,4.46c1.02,0.73,2.08,0.61,2.71-0.14c0.7-0.84,0.61-1.61-0.45-2.6
		c-1.52-1.42-3.04-2.84-4.64-4.17c-2.85-2.38-5.76-4.69-8.64-7.03c-0.82-0.67-1.37-0.45-1.7,0.49c-0.29,0.83-0.54,1.67-0.84,2.49
		c-0.51,1.44-1.24,2.68-2.82,3.19c-2.02,0.64-3.59-0.57-3.49-2.65c0.09-1.92,0.02-3.84,0.15-5.75c0.04-0.61,0.36-1.28,0.75-1.76
		c0.59-0.73,1.36-1.31,2.05-1.95c-0.03-0.11-0.06-0.22-0.09-0.32c-3.33-0.36-6.9,0.23-9.65-2.5c-2.54,3.6-4.97,7.02-7.36,10.46
		c-0.14,0.2-0.16,0.63-0.04,0.85c0.79,1.52,1.63,3.01,2.47,4.54c2.74-2.58,5.16-1.45,6.23,1.02c2.79-0.23,3.86,0.6,4.33,3.34
		c0.04,0.22,0.24,0.54,0.43,0.59c2,0.59,2.64,2.02,2.48,3.94c2.79,1.13,3.3,2.49,2.04,5.84c1.69,0.49,3.34,1.06,5.04,1.42
		C-18.11,111.68-17.1,111.52-16.59,110.33z M-4.79,80.51c-2.12,0.84-4.12,1.01-6.18,0.64c-2.12-0.38-4.24-0.74-6.36-1.11
		c-1.5-0.26-2.85,0-3.99,1.1c-1.37,1.34-2.79,2.63-4.13,4c-0.34,0.35-0.57,0.94-0.6,1.44c-0.1,1.71-0.11,3.43-0.11,5.15
		c0,0.36,0.11,0.95,0.3,1.02c0.4,0.14,1.06,0.16,1.31-0.08c0.58-0.56,1.05-1.27,1.42-2c0.32-0.63,0.39-1.38,0.64-2.05
		c1.01-2.68,2.49-3.23,4.71-1.46c3.97,3.15,7.84,6.42,11.66,9.75c0.9,0.78,1.55,0.87,2.28,0.08c1.1-1.2,1.99-2.6,3.17-3.7
		c1.09-1.01,1-1.84,0.4-3.05C-1.82,87.06-3.26,83.82-4.79,80.51z M-38.99,74.44c-3.17,4.47-6.28,8.87-9.45,13.35
		c1.34,0.94,2.6,1.82,3.92,2.75c3.18-4.49,6.29-8.88,9.46-13.36C-36.4,76.26-37.67,75.37-38.99,74.44z M6.82,91.2
		c-2.32-5.02-4.58-9.9-6.87-14.85c-1.35,0.62-2.61,1.2-3.96,1.83c2.31,4.99,4.58,9.9,6.86,14.84C4.22,92.39,5.45,91.82,6.82,91.2z
		 M-30.5,99.43c-0.41-0.47-0.7-1.13-1.15-1.26c-0.51-0.15-1.33-0.03-1.71,0.32c-1.25,1.11-2.37,2.36-3.52,3.58
		c-0.78,0.82-0.82,1.8-0.14,2.43c0.7,0.66,1.6,0.58,2.42-0.26c1.12-1.14,2.24-2.28,3.31-3.45C-30.99,100.46-30.83,100-30.5,99.43z
		 M-32.18,107.96c0.47-0.18,0.83-0.22,1.04-0.42c1.05-1.03,2.12-2.06,3.06-3.19c0.54-0.65,0.42-1.46-0.23-2.04
		c-0.65-0.58-1.42-0.6-2.05,0.01c-1.01,0.97-2.02,1.95-2.88,3.04c-0.29,0.37-0.29,1.16-0.1,1.63
		C-33.17,107.41-32.56,107.65-32.18,107.96z M-36.7,95.56c-0.1,0.02-0.37-0.02-0.48,0.1c-0.97,0.97-2.01,1.9-2.82,3
		c-0.21,0.29,0.12,1.31,0.5,1.62c0.38,0.31,1.35,0.41,1.7,0.14c0.96-0.75,1.83-1.66,2.53-2.66C-34.63,96.86-35.49,95.59-36.7,95.56z
		 M-28.26,110.58c1.28,0.01,3.41-2.12,3.24-3.07c-0.09-0.48-0.46-1.11-0.87-1.28c-0.46-0.19-1.21-0.11-1.63,0.16
		c-0.65,0.42-1.25,1.03-1.65,1.7c-0.26,0.43-0.28,1.17-0.09,1.64C-29.1,110.15-28.49,110.39-28.26,110.58z"/>
	<g>
		<path class="st2" d="M46.2,36.09c-4.56-3.93-9.13-7.86-13.79-11.68c-1.7-1.4-2.11-1.16-2.88,0.96c-0.4,1.11-0.71,2.28-1.25,3.32
			c-0.69,1.31-1.83,2.1-3.4,2.01c-1.39-0.08-2.38-1.06-2.34-2.2c0.08-2.21,0.09-4.42,0.24-6.63c0.04-0.62,0.37-1.31,0.78-1.78
			c0.73-0.84,1.63-1.54,2.46-2.3c-0.06-0.13-0.12-0.26-0.19-0.39c-1.33-0.09-2.66-0.29-3.98-0.24c-1.84,0.06-3.47-0.45-5.03-1.34
			c-0.49-0.28-0.96-0.59-1.52-0.94c-2.72,3.83-5.4,7.6-8.06,11.38c-0.12,0.17-0.18,0.5-0.1,0.66c0.91,1.71,1.86,3.4,2.82,5.13
			c2.92-2.56,5.01-2.17,6.49,1.04c3.18-0.69,4.69,1.23,4.6,3.88c2.45,0.74,3.08,1.66,3.04,4.39c2.66,0.62,3.88,3.04,1.92,5.9
			c1.88,0.73,3.61,1.46,5.38,2.06c0.63,0.21,1.43,0.28,2.05,0.08c0.58-0.19,1.09-0.77,1.46-1.3c0.08-0.11-0.56-0.87-0.99-1.14
			c-1.35-0.85-2.78-1.58-4.13-2.44c-0.32-0.2-0.42-0.74-0.62-1.12c0.43-0.02,0.94-0.19,1.27-0.02c1.63,0.86,3.2,1.83,4.82,2.71
			c0.53,0.29,1.12,0.53,1.71,0.61c0.98,0.13,1.96-0.05,2.32-1.14c0.35-1.06-0.37-1.67-1.18-2.16c-1.82-1.11-3.64-2.22-5.44-3.35
			c-0.48-0.3-1.32-0.55-0.83-1.33c0.51-0.81,1.1-0.08,1.57,0.2c2.15,1.28,4.25,2.63,6.4,3.9c1.48,0.88,2.61,0.75,3.28-0.26
			c0.59-0.91,0.25-1.71-1.19-2.8c-1.99-1.51-4.01-2.99-5.96-4.55c-0.35-0.28-0.42-0.89-0.63-1.35c0.46,0.08,0.94,0.11,1.39,0.25
			c0.26,0.08,0.45,0.34,0.69,0.51c2.11,1.55,4.2,3.14,6.36,4.63c1.05,0.73,2.2,0.52,2.86-0.33C47.29,38.01,47.25,37,46.2,36.09z"/>
		<path class="st2" d="M47,15.74c-2.29,0.92-4.57,1.14-6.93,0.68c-2.13-0.42-4.28-0.74-6.41-1.13c-1.73-0.32-3.24,0.05-4.52,1.31
			c-1.4,1.38-2.88,2.69-4.24,4.11c-0.4,0.41-0.66,1.1-0.7,1.68c-0.13,1.8-0.16,3.6-0.16,5.41c0,0.46,0.13,1.24,0.39,1.33
			c0.51,0.18,1.35,0.19,1.69-0.13c0.66-0.61,1.15-1.46,1.54-2.28c0.44-0.92,0.61-1.96,1.05-2.88c0.88-1.85,2.06-2.15,3.76-1.04
			c0.82,0.54,1.65,1.09,2.4,1.72c3.63,3.07,7.26,6.15,10.83,9.29c0.7,0.62,1.29,0.74,1.89,0.13c1.08-1.1,1.96-2.43,3.15-3.39
			c2.26-1.82,1.65-3.62,0.51-5.76C49.7,21.86,48.42,18.79,47,15.74z"/>
		<path class="st2" d="M13.73,12.44c-0.75-0.5-1.5-1-2.21-1.56c-0.9-0.7-1.5-0.46-2.12,0.43c-2.29,3.3-4.63,6.57-6.95,9.85
			C0.93,23.3,0.93,23.3,3.06,24.8c0.66,0.46,1.33,0.92,2.08,1.43c0.4-0.31,0.78-0.49,0.99-0.79c2.65-3.7,5.27-7.42,7.9-11.13
			C14.56,13.57,14.52,12.97,13.73,12.44z"/>
		<path class="st2" d="M58.44,25.17c-1.82-3.9-3.61-7.81-5.44-11.7c-0.17-0.35-0.56-0.59-0.89-0.92c-1.04,0.48-1.91,0.93-2.82,1.29
			c-1.06,0.41-1.2,1.03-0.73,2.02c1.47,3.11,2.87,6.25,4.34,9.36c1.68,3.56,0.9,3.46,4.92,1.62C58.62,26.49,58.81,25.97,58.44,25.17
			z"/>
		<path class="st2" d="M19.82,36.02c-0.44-0.53-0.77-1.32-1.29-1.46c-0.63-0.18-1.62-0.05-2.09,0.36c-1.41,1.23-2.68,2.64-3.94,4.03
			c-0.76,0.84-0.68,1.91,0.1,2.63c0.73,0.68,1.86,0.67,2.65-0.11c1.3-1.3,2.58-2.63,3.82-3.99C19.37,37.14,19.51,36.64,19.82,36.02z
			"/>
		<path class="st2" d="M22.38,41.37c0.62-0.74,0.52-1.63-0.17-2.33c-0.72-0.73-1.66-0.9-2.42-0.21c-1.18,1.06-2.23,2.26-3.31,3.44
			c-0.21,0.22-0.26,0.59-0.47,1.13c0.33,0.45,0.61,1.22,1.13,1.44c0.56,0.24,1.55,0.21,1.99-0.15
			C20.32,43.72,21.38,42.55,22.38,41.37z"/>
		<path class="st2" d="M14.46,34.87c0.28-0.32,0.42-0.77,0.72-1.36c-0.39-0.51-0.68-1.28-1.21-1.49c-0.57-0.23-1.51-0.17-2,0.17
			c-0.89,0.61-1.61,1.49-2.32,2.33c-0.7,0.83-0.59,1.86,0.13,2.55c0.76,0.72,1.81,0.71,2.64-0.08
			C13.14,36.31,13.82,35.61,14.46,34.87z"/>
		<path class="st2" d="M24.53,43.03c-0.55-0.2-1.38-0.06-1.9,0.25c-0.68,0.41-1.31,1.05-1.7,1.74c-0.3,0.53-0.46,1.4-0.22,1.91
			c0.23,0.51,0.99,0.99,1.58,1.09c1.17,0.18,3.41-2.2,3.36-3.83C25.43,43.94,25.08,43.23,24.53,43.03z"/>
	</g>
	<path class="st3" d="M-16.59,110.33c-0.51,1.19-1.51,1.36-2.44,1.16c-1.7-0.36-3.35-0.93-5.04-1.42c1.26-3.34,0.75-4.71-2.04-5.84
		c0.16-1.91-0.48-3.34-2.48-3.94c-0.19-0.06-0.39-0.37-0.43-0.59c-0.48-2.73-1.55-3.57-4.33-3.34c-1.08-2.47-3.5-3.6-6.23-1.02
		c-0.84-1.53-1.68-3.02-2.47-4.54c-0.12-0.22-0.1-0.65,0.04-0.85c2.4-3.44,4.82-6.86,7.36-10.46c2.74,2.73,6.32,2.13,9.65,2.5
		c0.03,0.11,0.06,0.22,0.09,0.32c-0.69,0.64-1.46,1.23-2.05,1.95c-0.39,0.48-0.71,1.15-0.75,1.76c-0.12,1.91-0.06,3.84-0.15,5.75
		c-0.09,2.08,1.47,3.29,3.49,2.65c1.58-0.5,2.31-1.75,2.82-3.19c0.29-0.82,0.55-1.66,0.84-2.49c0.33-0.94,0.89-1.16,1.7-0.49
		c2.88,2.35,5.79,4.66,8.64,7.03c1.6,1.33,3.12,2.75,4.64,4.17c1.06,0.99,1.15,1.77,0.45,2.6c-0.63,0.75-1.69,0.87-2.71,0.14
		c-2.01-1.44-3.97-2.97-5.95-4.46c-0.26-0.19-0.48-0.5-0.76-0.57c-0.37-0.09-0.79,0.02-1.19,0.04c0.06,0.42-0.02,0.99,0.22,1.23
		c0.74,0.72,1.59,1.34,2.42,1.96c1.4,1.06,2.87,2.04,4.22,3.16c0.37,0.31,0.67,1.03,0.57,1.47c-0.08,0.36-0.82,0.85-1.22,0.81
		c-0.92-0.09-1.9-0.31-2.71-0.75c-1.78-0.98-3.47-2.13-5.2-3.22c-0.55-0.35-1.21-0.81-1.59,0.02c-0.13,0.3,0.31,1.08,0.7,1.35
		c1.64,1.13,3.39,2.12,5.04,3.23c0.38,0.26,0.82,0.8,0.81,1.2c-0.03,0.77-0.58,1.37-1.42,1.31c-0.74-0.05-1.52-0.18-2.18-0.5
		c-1.25-0.61-2.42-1.4-3.64-2.08c-0.58-0.33-1.26-1.07-1.83-0.12c-0.53,0.88,0.36,1.16,0.9,1.5
		C-19.43,108.66-18.05,109.46-16.59,110.33z"/>
	<path class="st3" d="M-4.79,80.51c1.54,3.31,2.97,6.55,4.55,9.72c0.6,1.21,0.68,2.04-0.4,3.05c-1.18,1.1-2.08,2.5-3.17,3.7
		c-0.72,0.79-1.38,0.71-2.28-0.08c-3.82-3.33-7.69-6.6-11.66-9.75c-2.23-1.77-3.71-1.22-4.71,1.46c-0.25,0.67-0.32,1.42-0.64,2.05
		c-0.37,0.73-0.84,1.44-1.42,2c-0.25,0.24-0.92,0.22-1.31,0.08c-0.2-0.07-0.3-0.66-0.3-1.02c0-1.72,0.01-3.44,0.11-5.15
		c0.03-0.5,0.26-1.09,0.6-1.44c1.33-1.38,2.75-2.67,4.13-4c1.13-1.1,2.48-1.36,3.99-1.1c2.12,0.37,4.24,0.73,6.36,1.11
		C-8.92,81.52-6.91,81.35-4.79,80.51z"/>
	<path class="st3" d="M-38.99,74.44c1.32,0.92,2.59,1.81,3.92,2.75c-3.17,4.47-6.28,8.87-9.46,13.36c-1.32-0.93-2.58-1.81-3.92-2.75
		C-45.26,83.32-42.15,78.92-38.99,74.44z"/>
	<path class="st3" d="M6.82,91.2c-1.37,0.63-2.6,1.19-3.97,1.82c-2.29-4.95-4.55-9.85-6.86-14.84c1.36-0.62,2.61-1.2,3.96-1.83
		C2.24,81.3,4.5,86.18,6.82,91.2z"/>
	<path class="st3" d="M-30.5,99.43c-0.33,0.57-0.49,1.03-0.8,1.36c-1.08,1.18-2.19,2.32-3.31,3.45c-0.82,0.83-1.72,0.91-2.42,0.26
		c-0.67-0.63-0.64-1.61,0.14-2.43c1.15-1.22,2.27-2.47,3.52-3.58c0.38-0.34,1.2-0.47,1.71-0.32C-31.2,98.31-30.91,98.96-30.5,99.43z
		"/>
	<path class="st3" d="M-32.18,107.96c-0.39-0.3-1-0.55-1.16-0.97c-0.19-0.47-0.19-1.27,0.1-1.63c0.86-1.09,1.87-2.08,2.88-3.04
		c0.63-0.61,1.4-0.59,2.05-0.01c0.66,0.58,0.78,1.39,0.23,2.04c-0.95,1.13-2.01,2.16-3.06,3.19
		C-31.34,107.74-31.71,107.78-32.18,107.96z"/>
	<path class="st3" d="M-36.7,95.56c1.21,0.02,2.06,1.29,1.43,2.2c-0.7,1-1.57,1.91-2.53,2.66c-0.35,0.27-1.32,0.17-1.7-0.14
		c-0.38-0.31-0.71-1.33-0.5-1.62c0.81-1.1,1.84-2.03,2.82-3C-37.06,95.54-36.8,95.58-36.7,95.56z"/>
	<path class="st3" d="M-28.26,110.58c-0.23-0.18-0.84-0.43-1.01-0.85c-0.19-0.47-0.16-1.21,0.09-1.64c0.4-0.66,0.99-1.28,1.65-1.7
		c0.42-0.27,1.18-0.35,1.63-0.16c0.41,0.17,0.78,0.8,0.87,1.28C-24.85,108.46-26.98,110.59-28.26,110.58z"/>
</g>
<g id="Layer_2" class="st0">
	<circle class="st4" cx="30" cy="30" r="29.5"/>
</g>
</svg>
