<svg xmlns="http://www.w3.org/2000/svg" viewBox="0 0 26.615 29.961"><path d="M2.522 23.687h1.07v.856a4.1 4.1 0 003.47 4v.74a.693.693 0 00.691.678h11.108a.685.685 0 00.691-.676v-.74a4.1 4.1 0 003.469-4v-.858h1.07c1.914 0 2.523-.6 2.523-2.465V2.465C26.614.596 26.006 0 24.092 0H2.522C.608 0 0 .6 0 2.465v18.757c0 1.87.61 2.466 2.523 2.466zm2.459.856v-.856h.691v.863a2.04 2.04 0 001.383 1.9v.706a2.724 2.724 0 01-2.081-2.617zm4.17-.856v1.538h-1.4a.693.693 0 01-.691-.678v-.86zm2.081 0v1.538h-.691v-1.538zm2.776 0v1.538h-1.383v-1.538zm2.081 0v1.538h-.691v-1.538zm3.472 0v.856a.685.685 0 01-.691.678h-1.392v-1.534zm-11.11 4.928v-2.036h9.717v2.029zm13.188-4.073a2.719 2.719 0 01-2.081 2.616v-.7a2.034 2.034 0 001.383-1.9v-.871h.691zM1.388 2.462c0-1.122-.014-1.11 1.135-1.11h21.574c1.152 0 1.135-.013 1.135 1.11v18.752c0 1.121.014 1.11-1.135 1.11H2.522c-1.152 0-1.135.012-1.135-1.11z" fill="#373f47"/><path fill="#373f47" d="M4.066 5.726a1.728 1.728 0 10-1.728-1.728 1.728 1.728 0 001.728 1.728zm-.3-1.728a.3.3 0 11.3.3.3.3 0 01-.3-.29zm18.731 1.728a1.728 1.728 0 10-1.718-1.739v.006a1.729 1.729 0 001.718 1.733zm-.3-1.728a.3.3 0 11.3.3.3.3 0 01-.3-.29zM4.066 17.95a1.728 1.728 0 101.723 1.734v-.012a1.727 1.727 0 00-1.723-1.722zm.3 1.723a.3.3 0 01-.593.037v-.037a.3.3 0 01.593 0zm18.136-1.723a1.728 1.728 0 101.728 1.728v-.006a1.727 1.727 0 00-1.73-1.723zm.3 1.723a.3.3 0 11-.3-.3.3.3 0 01.3.3zm-9.46-16.211a8.435 8.435 0 00-.2 16.868h.2a8.435 8.435 0 000-16.868zm-2.814 8.374v.056a2.83 2.83 0 00.078.659 4.921 4.921 0 01-4.263-1.055A7.052 7.052 0 017.48 8.052a6.241 6.241 0 00.868 1.823 6.393 6.393 0 002.18 1.961zm4.765 2.091a2.818 2.818 0 00.447-.559 4.906 4.906 0 012.265 3.753 6.934 6.934 0 01-3.241 1.637 6.26 6.26 0 00.561-1.383l.021.021.1-.54a6.378 6.378 0 00-.154-2.929zm-4.1-6.646a6.4 6.4 0 00.205 2.588 2.835 2.835 0 00-.447.559 4.92 4.92 0 01-2.265-3.753 6.9 6.9 0 013.24-1.636 6.237 6.237 0 00-.681 1.9l-.065.346zm2.155 3.226a1.39 1.39 0 11-1.39 1.39 1.388 1.388 0 011.383-1.39zm3.844-4.469a6.375 6.375 0 00-3.788 3.043h-.055a1.941 1.941 0 00-.66.077 4.908 4.908 0 011.055-4.263 6.905 6.905 0 013.448 1.143zm-8.513 8.013v-.01a6.394 6.394 0 002.638-.2 2.9 2.9 0 00.559.447 4.913 4.913 0 01-3.753 2.265 6.933 6.933 0 01-1.636-3.241 6.26 6.26 0 001.9.683zm4.609.659h.055a3.117 3.117 0 00.661-.077 4.914 4.914 0 01-1.056 4.263A6.919 6.919 0 019.5 17.758a6.372 6.372 0 003.788-3.048zm2.874-2.756v-.058a2.69 2.69 0 00-.077-.658 4.9 4.9 0 014.263 1.054 6.894 6.894 0 01-1.137 3.445 6.231 6.231 0 00-.868-1.823 6.348 6.348 0 00-2.18-1.961zm-.787-2.007a2.752 2.752 0 00-.558-.448 4.908 4.908 0 013.753-2.265 6.925 6.925 0 011.637 3.24 6.343 6.343 0 00-3.058-.781 6.242 6.242 0 00-1.773.255z"/></svg>