<svg xmlns="http://www.w3.org/2000/svg" viewBox="0 0 29.958 29.956"><path fill="#373f47" d="M29.29 8.285h-1.014V6.616h1.012a.672.672 0 000-1.344h-1.014V3.855a2.181 2.181 0 00-2.176-2.17h-1.413V.675a.673.673 0 00-.672-.669.674.674 0 00-.669.669v1.01h-1.668V.675a.671.671 0 00-.672-.669.675.675 0 00-.669.669v1.01h-1.677V.675a.671.671 0 00-.672-.669.675.675 0 00-.669.669v1.01H15.65V.675a.673.673 0 00-.672-.669.676.676 0 00-.669.669v1.01h-1.667V.675A.673.673 0 0011.974 0a.673.673 0 00-.672.668v1.017H9.628V.675a.673.673 0 10-1.345 0v1.01H6.616V.675a.672.672 0 10-1.344 0v1.01H3.858A2.184 2.184 0 001.68 3.863v1.413H.673a.672.672 0 000 1.344H1.68v1.665H.673a.672.672 0 000 1.344H1.68v1.667H.673a.672.672 0 000 1.344H1.68v1.667H.673a.674.674 0 00-.475.2.665.665 0 00-.195.476.676.676 0 00.669.669h1.007v1.667H.672a.672.672 0 000 1.344h1.007v1.669H.672a.672.672 0 000 1.344h1.007v1.667H.668a.672.672 0 000 1.344h1.014V26.1a2.186 2.186 0 002.178 2.178h1.413v1.007a.672.672 0 001.344 0v-1.008h1.667v1.008a.673.673 0 001.345 0v-1.008h1.667v1.008a.673.673 0 00.672.668.674.674 0 00.668-.669v-1.007h1.667v1.008a.673.673 0 00.672.668.675.675 0 00.669-.669v-1.007h1.667v1.008a.671.671 0 00.671.668.675.675 0 00.669-.669v-1.007h1.667v1.008a.673.673 0 00.2.474.666.666 0 00.472.195.674.674 0 00.668-.669v-1.007h1.668v1.007a.673.673 0 00.671.668.675.675 0 00.669-.669v-1.007h1.413a2.183 2.183 0 002.178-2.178v-1.414h1.011a.672.672 0 000-1.344h-1.014v-1.667h1.011a.673.673 0 00.672-.669.672.672 0 00-.668-.674h-1.014v-1.669h1.007a.672.672 0 000-1.344h-1.007v-1.667h1.007a.673.673 0 00.669-.675.676.676 0 00-.669-.669h-1.007V12.64h1.011a.672.672 0 000-1.344h-1.014V9.627l1.008.006a.672.672 0 000-1.344zm-2.358 17.813a.835.835 0 01-.834.834H3.858a.834.834 0 01-.834-.834V3.86a.838.838 0 01.834-.834h22.24a.835.835 0 01.834.834z"/><path fill="#373f47" d="M24.096 5.195v-.081.081H5.867a.677.677 0 00-.678.676v18.225a.684.684 0 00.678.68h18.226a.679.679 0 00.678-.678V5.873a.675.675 0 00-.674-.679zm-.683 18.222H6.544V6.551H23.41z"/><path fill="#373f47" d="M11.236 12.102a.37.37 0 00-.051 0H9.7a1.4 1.4 0 00-1.4 1.4v2.964a1.408 1.408 0 001.4 1.4h1.508a.661.661 0 00.028-1.321H9.619V13.42h1.561a.7.7 0 00.478-.175.66.66 0 00-.423-1.144zm4.48-.001h-2.225a.661.661 0 00-.66.659v4.447a.661.661 0 00.658.66v.081-.081a.662.662 0 00.66-.658v-1.565h1.563a.662.662 0 00.66-.66V12.76a.659.659 0 00-.658-.659zm-.663 2.224h-.9v-.9h.9zm2.314 2.141a1.407 1.407 0 001.4 1.4h1.486a1.406 1.406 0 001.4-1.4V12.76a.658.658 0 00-.633-.689h-.027a.663.663 0 00-.66.634v3.843H18.69V12.76a.66.66 0 00-.634-.689h-.027a.661.661 0 00-.659.634z"/></svg>