<svg xmlns="http://www.w3.org/2000/svg" viewBox="0 0 28.288 26.625"><path fill="#373f47" d="M22.758 17.731V3.624a.672.672 0 00-.676-.668.671.671 0 00-.668.675v14.108a.672.672 0 001.344 0zm1.319.671a.672.672 0 00.672-.67v-14.1a.672.672 0 00-.67-.67.672.672 0 00-.674.67v14.107a.67.67 0 00.672.663zm-6.016 2.007h-9.4a.672.672 0 000 1.344h9.4a.672.672 0 000-1.344zm0 1.974H8.654a.672.672 0 10.007 1.344h9.4a.672.672 0 000-1.344zm4.674-1.974a.672.672 0 000 1.344h1.342a.672.672 0 000-1.344zm1.342 1.974h-1.342a.672.672 0 000 1.344h1.349a.672.672 0 00-.007-1.344zM20.079 7.678h.008a.671.671 0 00.668-.675.672.672 0 00-.675-.664h-1.323V4.98a.672.672 0 00-.672-.672h-1.35V3.033a.672.672 0 00-.67-.67.672.672 0 00-.674.67v1.275h-1.333V3.033a.672.672 0 00-.67-.67.672.672 0 00-.674.67v1.275h-1.331V3.033a.672.672 0 00-.67-.67.672.672 0 00-.674.67v1.275H8.685a.672.672 0 00-.672.672v1.359H6.695a.672.672 0 00-.67.67.672.672 0 00.67.674h1.318v1.314H6.695a.672.672 0 000 1.344h1.318v1.321H6.695a.672.672 0 000 1.344h1.318v1.374a.672.672 0 00.672.672h1.359v1.287a.672.672 0 00.672.672.672.672 0 00.669-.675v-1.284h1.329v1.287a.672.672 0 00.672.672.672.672 0 00.669-.675v-1.284h1.333v1.287a.672.672 0 00.672.672.672.672 0 00.669-.675v-1.284h1.355a.672.672 0 00.673-.671v-1.375h1.324a.672.672 0 000-1.344h-1.324v-1.323h1.33a.672.672 0 00-.007-1.344h-1.323V7.678zm-2.66 6.031H9.353V5.652h8.066z"/><path fill="#373f47" d="M26.166 0H3.781a2.123 2.123 0 00-2.123 2.123v.856H.672A.672.672 0 000 3.651v9.4a.672.672 0 00.672.672h.986v.592H.672a.672.672 0 00-.672.672v2.689a.672.672 0 00.672.672h.986v.591H.672a.672.672 0 00-.672.672V22.3a.672.672 0 00.672.672h.986V24.5a2.122 2.122 0 002.121 2.123h22.387a2.122 2.122 0 002.122-2.122V2.122A2.123 2.123 0 0026.166 0zM1.344 12.38V4.323h2.322v8.057zm0 4.659v-1.371H5v1.371zm0 4.608v-1.371H5v1.363zm25.616 2.882a.77.77 0 01-.77.77H3.765a.769.769 0 01-.769-.769v-1.529h2.677a.723.723 0 00.691-.7v-2.686a.672.672 0 00-.672-.672H3.005v-.593h2.694a.671.671 0 00.668-.675v-2.686a.672.672 0 00-.672-.672h-2.69v-.584h1.339a.691.691 0 00.691-.679v-9.4a.672.672 0 00-.672-.672H3.005v-.876a.77.77 0 01.769-.767h22.417a.771.771 0 01.769.77z"/></svg>