<svg xmlns="http://www.w3.org/2000/svg" viewBox="0 0 29.999 29.992"><path fill="#373f47" d="M28.466 19.271h.478a1.056 1.056 0 001.055-1.054v-1.092a1.568 1.568 0 00-1.565-1.565h-3.431l4.552-1.77a.669.669 0 00.381-.866l-1.1-2.839a1.568 1.568 0 00.877-2.02l-1.368-3.518a1.056 1.056 0 00-1.366-.6l-.9.349a.316.316 0 01-.355-.072.287.287 0 01-.055-.324c.05-.115.068-.128.646-.349l.438-.165a1.056 1.056 0 00.6-1.366l-.4-1.017a1.567 1.567 0 00-2.026-.892l-.076.03-23.762 9.2-.1.038a1.565 1.565 0 00-.892 2.026l.395 1.017a1.056 1.056 0 001.366.6l.9-.351a.318.318 0 01.355.071.287.287 0 01.055.324c-.051.115-.074.125-.646.351l-.446.169a1.057 1.057 0 00-.6 1.366l.24.616h-.161A1.568 1.568 0 00-.01 17.133v1.092a1.056 1.056 0 001.056 1.054h.967a.319.319 0 01.306.2.287.287 0 01-.066.323c-.089.089-.113.089-.729.091h-.478A1.056 1.056 0 00-.01 20.947v3.776a1.568 1.568 0 001.548 1.565v3.045a.672.672 0 00.67.67h13.77a.671.671 0 00.669-.67v-1.621a.303.303 0 11.607 0v1.621a.671.671 0 00.669.67h9.848a.672.672 0 00.67-.67v-3.045a1.568 1.568 0 001.548-1.565v-3.787a1.056 1.056 0 00-1.055-1.054h-.967a.318.318 0 01-.306-.2.285.285 0 01.066-.322c.099-.088.12-.091.739-.089zm-.628-6.249l-.333-.857a.67.67 0 00-1.248.486l.333.857-.588.228-.333-.857a.67.67 0 00-1.248.486l.333.857-.588.228-.333-.857a.67.67 0 00-1.249.486l.333.857-.588.228-.333-.857a.67.67 0 00-1.247.486l.3.768h-.7l-.208-.534a.67.67 0 00-1.248.486l.02.048h-4.16l2.613-1.015 1.523-.592 8.7-3.382.862 2.215zm-25 1.7l.659-.256a1.645 1.645 0 00.936-2.128 1.664 1.664 0 00-2.149-.925l-.636.248-.293-.753a.227.227 0 01.128-.293l23.935-9.263a.227.227 0 01.293.129l.292.751-.128.048c-.664.251-1.152.428-1.44 1.079a1.61 1.61 0 00.315 1.788 1.639 1.639 0 001.808.4l.636-.247 1.265 3.254a.226.226 0 01-.128.293l-17.278 6.714h-7.89zm12.479 12.976v.952h-.6v-.919a.67.67 0 00-1.34 0v.919h-.621v-.919a.67.67 0 00-1.34 0v.919h-.631v-.919a.67.67 0 00-1.339 0v.919h-.631v-.919a.67.67 0 00-1.339 0v.919h-.623v-.919a.67.67 0 00-1.34 0v.919h-.63v-.919a.67.67 0 00-1.34 0v.919h-.649v-2.376h13.255a1.645 1.645 0 00-.831 1.427zm11.793.952h-.649v-.919a.67.67 0 00-1.34 0v.919h-.63v-.919a.67.67 0 00-1.34 0v.919h-.631v-.919a.67.67 0 00-1.339 0v.919h-.628v-.919a.67.67 0 00-1.339 0v.919h-.607v-.952a1.645 1.645 0 00-.826-1.425h9.333zm-.675-8.457a1.64 1.64 0 001.541 1.023h.682v3.492a.225.225 0 01-.225.226H1.565a.225.225 0 01-.225-.226v-3.492h.707a1.644 1.644 0 001.643-1.644 1.663 1.663 0 00-1.668-1.64H1.34v-.809a.225.225 0 01.225-.226h26.868a.225.225 0 01.225.226v.806h-.136a2.078 2.078 0 00-1.734.483 1.611 1.611 0 00-.352 1.784z"/><path fill="#373f47" d="M10.796 18.614H8.865a.574.574 0 00-.574.572v3.859a.574.574 0 00.572.572.574.574 0 00.573-.57v-1.359h.2l.621 1.568a.573.573 0 001.066-.422l-.46-1.16a.568.568 0 00.5-.558v-1.93a.572.572 0 00-.571-.572zm-.575 1.929h-.783v-.783h.783zm5.744-1.357a.572.572 0 00-.571-.572h-1.929a.573.573 0 00-.573.572v3.859a.573.573 0 00.571.572.574.574 0 00.573-.57v-1.359h.784v1.356a.573.573 0 001.146 0v-3.858zm-1.145 1.357h-.784v-.783h.784zm6.666-1.777a.575.575 0 00-.811 0l-1.047 1.047-1.047-1.047a.572.572 0 00-.977.413v3.865a.573.573 0 001.146 0v-2.485l.467.467a.592.592 0 00.824 0l.467-.467v2.489a.574.574 0 001.147 0v-3.865a.574.574 0 00-.169-.417z"/></svg>